<?xml version="1.0" encoding="utf-8"?>
<!-- Generator: Adobe Illustrator 21.1.0, SVG Export Plug-In . SVG Version: 6.00 Build 0)  -->
<svg version="1.1" id="Capa_1" xmlns="http://www.w3.org/2000/svg" xmlns:xlink="http://www.w3.org/1999/xlink" x="0px" y="0px"
	 viewBox="0 0 726 269" style="enable-background:new 0 0 726 269;" xml:space="preserve">
<style type="text/css">
	.st0{fill:#020203;}
	.st1{fill:#020203;stroke:#020203;stroke-width:3.2903;stroke-miterlimit:10;}
</style>
<g>
	<path class="st0" d="M305,107.7c-2.9-27.1-14.1-50-32.5-66.2c-22.4-19.8-42.4-29.4-61.1-29.4c-21.7,0-38.4,12.6-54.6,24.8
		c-10.9,8.2-22.2,16.8-34.6,20.9C87.8,69.1,69.8,93.9,64.6,119c-6.7,3.8-12.8,8.1-18.3,12.9c-15.2,13.3-23.9,29.3-22.5,41.6
		c0.7,6.2,3.8,11.1,8.9,14.2c5.4,3.2,11.3,10.5,18.2,18.9c10.5,12.9,22.4,27.5,38.6,36c8.6,4.5,17.6,6.8,26.8,6.8
		c11.4,0,23.1-3.3,35.8-10.2c2.9-1.6,5.7-3.2,8.5-4.8c10.8,7,21.9,13.2,33,17.4c10,3.8,19,5.6,27.4,5.6c3,0,6-0.2,8.9-0.7
		c12.6-2.1,23.6-8.9,32.6-20.1C293.7,197.9,309.5,149.7,305,107.7z M74.3,122.4c12.1-5.9,25.6-10,39.8-11.9
		c13.4-1.8,27.3-6.8,40.8-11.6c16.5-5.9,32-11.5,46.5-11.5c16.4,0,28.8,7.4,38.8,23.2c2.5,3.9,4,8.2,4.5,12.9
		c1.6,15-7,34.2-24.3,53.9c-14.4,16.5-34.3,32.7-57,46.6c-11-7.3-21.8-15.5-31.9-23.2c-14.5-11-27-20.5-36.7-24.7
		c-11.3-4.9-19.4-18.1-21.2-34.6C72.8,135.4,73.1,128.9,74.3,122.4z M252.1,122.7c-0.6-5.8-2.5-11.3-5.6-16.1
		c-11.4-18-26.1-26.7-44.9-26.7c-15.9,0-32.8,6.1-49.2,11.9c-13.1,4.7-26.6,9.5-39.2,11.2c-12.8,1.7-25.1,5.1-36.3,9.9
		c6.5-19,22-36.7,48.6-45.5c14-4.6,26-13.7,37.6-22.4c15.5-11.7,30.1-22.7,48.4-22.7c16.2,0,33.9,8.8,54.4,26.8
		c16.4,14.5,26.5,35.1,29.1,59.7c4.2,39.3-10.8,84.7-40.3,121.4c-9.2,11.5-20.2,17-33.5,17c0,0,0,0,0,0c-7.2,0-15.2-1.7-23.8-4.9
		c-8.9-3.4-18-8.2-26.9-13.7C222.5,195.8,255.4,153.9,252.1,122.7z M63.3,142.7c2.2,20.4,12.4,36.4,27.3,42.8
		c8.6,3.7,20.7,12.9,34.6,23.4c9,6.8,18.5,14,28.3,20.8c-1.7,1-3.4,1.9-5.1,2.8c-11.5,6.2-22.1,9.3-32.3,9.3c-8,0-15.9-2-23.3-5.9
		c-14.8-7.8-26.2-21.7-36.3-34.1c-7.3-9-13.6-16.7-20.1-20.6c-3.1-1.9-4.9-4.8-5.3-8.6c-1.1-9.8,6.8-23.6,20-35.1
		c3.7-3.2,7.7-6.2,12-9C62.8,133.4,62.8,138.1,63.3,142.7z"/>
</g>
<g>
	<g>
		<path class="st1" d="M364.4,210.4c-2.1,0-3.9-1.8-3.9-3.9V88.9c0-2.2,1.8-3.9,3.9-3.9h24c11.1,0,20.4,9.5,20.4,21
			c0,6.8-3.2,12.9-9.3,16.8c6.1,3.6,9.3,9.5,9.3,16.3v67.4c0,2.2-1.8,3.9-3.9,3.9c-2.2,0-3.9-1.8-3.9-3.9v-67.4
			c-0.2-6.8-5.4-12.2-12.5-12.2h-20.1v79.6C368.3,208.6,366.6,210.4,364.4,210.4z M368.3,119h20.1c6.8,0,12.5-5.9,12.5-13.1
			c0-7.2-5.7-13.1-12.5-13.1h-20.1V119z"/>
		<path class="st1" d="M475,210.4c-2.1,0-3.9-1.8-3.9-3.9V105.7c0-12.5,10-22.6,21.3-22.6c11.3,0,21.3,10,21.3,22.6v100.7
			c0,2.2-1.8,3.9-3.9,3.9c-2.1,0-3.9-1.8-3.9-3.9v-54.8h-26.9v54.8C478.9,208.6,477.1,210.4,475,210.4z M505.8,105.7
			c0-8.4-5.9-14.7-13.4-14.7c-7.5,0-13.4,6.3-13.4,14.7v38h26.9V105.7z"/>
		<path class="st1" d="M596.3,59.2c3.2,0,5.7,4.1,2.5,6.8l-11.3,9.1c-0.7,0.5-1.4,0.9-2.3,0.9c-2.9,0-5.2-3.8-2.3-6.3l11.1-9.7
			C594.9,59.5,595.6,59.2,596.3,59.2z M588.8,210.4c-2.2,0-3.9-1.8-3.9-3.9V88.9c0-2.2,1.8-3.9,3.9-3.9c2.1,0,3.9,1.8,3.9,3.9v117.6
			C592.7,208.6,590.9,210.4,588.8,210.4z"/>
		<path class="st1" d="M663.2,85h34.2c2.5,0,5,2.1,3.9,5.2l-37.3,112.4h35.5c2.2,0,3.9,1.8,3.9,3.9c0,2.2-1.8,3.9-3.9,3.9h-40.9
			c-2.3,0-4.8-2-3.8-5.2l37.3-112.4h-29c-2.1,0-3.9-1.8-3.9-3.9C659.2,86.8,661,85,663.2,85z"/>
	</g>
</g>
</svg>
