<?xml version="1.0" encoding="utf-8"?>
<!-- Generator: Adobe Illustrator 22.0.1, SVG Export Plug-In . SVG Version: 6.00 Build 0)  -->
<svg version="1.1" id="Layer_8" xmlns="http://www.w3.org/2000/svg" xmlns:xlink="http://www.w3.org/1999/xlink" x="0px" y="0px"
	 viewBox="0 0 1920 672.1" style="enable-background:new 0 0 1920 672.1;" xml:space="preserve">
<style type="text/css">
	.st0{fill:#FFFFFF;}
	.st1{fill:none;stroke:#C6C6C6;stroke-width:5.6693;stroke-linecap:round;stroke-miterlimit:10;stroke-dasharray:0,8.5039;}
	.st2{fill:none;stroke:#009CB9;stroke-width:5.6693;stroke-linecap:round;stroke-miterlimit:10;stroke-dasharray:0,8.5039;}
	.st3{fill:#82BAE6;}
	.st4{fill:#00ADBF;}
	.st5{fill:#F39200;}
	.st6{fill:#DADADA;}
	.st7{fill:#DADADA;stroke:#DADADA;stroke-miterlimit:10;}
	.st8{fill:#E3E3E3;}
	.st9{fill:none;stroke:#C6C6C6;stroke-miterlimit:10;}
	.st10{fill:#EA5599;}
	.st11{fill:#95C11F;}
	.st12{fill:#E94E1B;}
	.st13{fill:#EA4B65;}
	.st14{fill:#009CB9;}
	.st15{fill:#008394;}
	.st16{fill:#005C7C;}
	.st17{fill:#671810;}
	.st18{fill:#B4162E;}
	.st19{fill:#CB0B0F;}
	.st20{fill:#E60881;}
	.st21{fill:#FCEA10;}
	.st22{fill:#9C1981;}
	.st23{fill:#ED9E14;}
	.st24{fill:#008D36;}
	.st25{fill:#1D71B8;}
	.st26{fill:#72320F;}
	.st27{fill:#822111;}
	.st28{fill:#4F1864;}
	.st29{fill:#29235C;}
	.st30{fill:#006633;}
	.st31{fill:none;stroke:#FFFFFF;stroke-width:2.8347;stroke-miterlimit:10;}
</style>
<rect x="-2.4" y="1.5" class="st0" width="1920" height="672.1"/>
<g>
	<circle class="st1" cx="1850.2" cy="338.9" r="34"/>
	<path class="st2" d="M306.7,463.9c0-21.2,17.2-38.4,38.4-38.4c21.2,0,38.4,17.2,38.4,38.4c0,21.2-17.2,38.4-38.4,38.4
		C323.9,502.3,306.7,485.1,306.7,463.9z"/>
	<path class="st3" d="M839.1,458.6c0-24.9,20.1-45,45-45c24.9,0,45,20.1,45,45s-20.1,45-45,45C859.3,503.6,839.1,483.4,839.1,458.6z
		"/>
	<path class="st4" d="M500.8,349.2H571c5.2,1.8,6.9,7.2,6.2,11.7c-0.8,5-4.4,10-10.9,10c-0.7,0-1.4,0.3-1.8,0.9
		c-0.4,0.6-0.6,1.3-0.5,2c0.8,3.4-0.3,7.2-2.9,10.4c-3.2,4-8.1,6.3-13.5,6.3c-3.7,0-7.5-1.1-11.3-3.2c-1-0.6-2.4-0.3-3.1,0.7
		c-3,4.3-7.5,4.9-9.9,4.9c-4.4,0-8.6-2-11-5.2c-2-2.8-2.5-6.2-1.4-10c0.2-0.7,0.1-1.5-0.4-2.1c-0.5-0.6-1.2-0.9-2-0.9
		c-6.1,0.4-10.9-2.9-12.8-8.6C494.2,361.1,495.1,354,500.8,349.2z"/>
	<path class="st5" d="M1526.7,472.3c0-24.9,20.1-45,45-45c24.9,0,45,20.1,45,45c0,24.9-20.1,45-45,45
		C1546.8,517.3,1526.7,497.1,1526.7,472.3z"/>
	<path class="st6" d="M1823.6,409.6h-122.7c-9.1,3.2-12,12.5-10.8,20.5c1.3,8.7,7.7,17.5,19,17.5c1.2,0,2.4,0.6,3.2,1.5
		c0.8,1,1.1,2.2,0.8,3.4c-1.3,6,0.5,12.6,5,18.2c5.6,7,14.2,11,23.6,11c6.5,0,13.1-1.9,19.7-5.6c1.8-1,4.1-0.5,5.3,1.2
		c5.2,7.5,13.1,8.6,17.3,8.6c7.7,0,15-3.5,19.2-9.1c3.6-4.8,4.4-10.9,2.4-17.4c-0.4-1.3-0.1-2.7,0.7-3.7c0.8-1.1,2.1-1.6,3.4-1.6
		c10.7,0.6,19-5.1,22.3-15C1835,430.4,1833.5,418,1823.6,409.6z"/>
	<path class="st7" d="M1394.6,492.1h-122.7c-9.1,3.2-12,12.5-10.8,20.5c1.3,8.7,7.7,17.5,19,17.5c1.2,0,2.4,0.6,3.2,1.5
		c0.8,1,1.1,2.2,0.8,3.4c-1.3,6,0.5,12.6,5,18.2c5.6,7,14.2,11,23.6,11c6.5,0,13.1-1.9,19.7-5.6c1.8-1,4.1-0.5,5.3,1.2
		c5.2,7.5,13.1,8.6,17.3,8.6c7.7,0,15-3.5,19.2-9.1c3.6-4.8,4.4-10.9,2.4-17.4c-0.4-1.3-0.1-2.7,0.7-3.7c0.8-1.1,2.1-1.6,3.4-1.6
		c10.7,0.6,19-5.1,22.3-15C1406.1,512.9,1404.6,500.5,1394.6,492.1z"/>
	<path class="st8" d="M689.2,427.1H566.5c-9.1,3.2-12,12.5-10.8,20.5c1.3,8.7,7.7,17.5,19,17.5c1.2,0,2.4,0.6,3.2,1.5
		c0.8,1,1.1,2.2,0.8,3.4c-1.3,6,0.5,12.6,5,18.2c5.6,7,14.2,11,23.6,11c6.5,0,13.1-1.9,19.7-5.6c1.8-1,4.1-0.5,5.3,1.2
		c5.2,7.5,13.1,8.6,17.3,8.6c7.7,0,15-3.5,19.2-9.1c3.6-4.8,4.4-10.9,2.4-17.4c-0.4-1.3-0.1-2.7,0.7-3.7c0.8-1.1,2.1-1.6,3.4-1.6
		c10.7,0.6,19-5.1,22.3-15C700.6,447.9,699.1,435.5,689.2,427.1z"/>
	<path class="st9" d="M1370.3,392.1h113.9c8.5,2.9,11.1,11.6,10,19c-1.2,8.1-7.2,16.3-17.6,16.3c-1.2,0-2.2,0.5-3,1.4
		c-0.7,0.9-1,2.1-0.7,3.2c1.2,5.6-0.5,11.7-4.6,16.9c-5.2,6.5-13.2,10.2-21.9,10.2c-6,0-12.2-1.7-18.3-5.2c-1.7-0.9-3.8-0.5-4.9,1.1
		c-4.9,6.9-12.1,8-16,8c-7.1,0-13.9-3.2-17.8-8.4c-3.3-4.5-4.1-10.1-2.2-16.1c0.4-1.2,0.1-2.5-0.6-3.4c-0.8-1-2-1.5-3.2-1.5
		c-9.9,0.6-17.6-4.7-20.7-13.9C1359.7,411.4,1361.1,399.8,1370.3,392.1z"/>
	<path class="st8" d="M235.2,436.6H112.5c-9.1,3.2-12,12.5-10.8,20.5c1.3,8.7,7.7,17.5,19,17.5c1.2,0,2.4,0.6,3.2,1.5
		c0.8,1,1.1,2.2,0.8,3.4c-1.3,6,0.5,12.6,5,18.2c5.6,7,14.2,11,23.6,11c6.5,0,13.1-1.9,19.7-5.6c1.8-1,4.1-0.5,5.3,1.2
		c5.2,7.5,13.1,8.6,17.3,8.6c7.7,0,15-3.5,19.2-9.1c3.6-4.8,4.4-10.9,2.4-17.4c-0.4-1.3-0.1-2.7,0.7-3.7c0.8-1.1,2.1-1.6,3.4-1.6
		c10.7,0.6,19-5.1,22.3-15C246.6,457.4,245.1,445,235.2,436.6z"/>
	<g>
		<rect x="68.8" y="1.5" class="st8" width="45" height="116.8"/>
		<rect x="73.2" y="1.5" class="st8" width="52.3" height="124.2"/>
		<polygon class="st8" points="175.7,1.5 88.7,1.5 88.5,125.7 98.5,136.4 165.5,136.4 175.5,120.4 		"/>
		<rect x="170.8" y="1.5" class="st8" width="16.7" height="118.8"/>
		<rect x="214.2" y="1.5" class="st8" width="67" height="105.8"/>
		<rect x="252.5" y="1.5" class="st8" width="37.3" height="120.5"/>
		<rect x="274.5" y="128" class="st8" width="169.5" height="7"/>
		<rect x="283.8" y="1.5" class="st8" width="160.2" height="130"/>
		<rect x="440.2" y="1.5" class="st8" width="285.3" height="117.2"/>
		<rect x="485.2" y="117" class="st8" width="36" height="18"/>
		<rect x="486.5" y="133.7" class="st8" width="5" height="13"/>
		<rect x="556.8" y="113.7" class="st8" width="36" height="21.3"/>
		<rect x="560.5" y="133.7" class="st8" width="2.7" height="13"/>
		<rect x="465.8" y="118.7" class="st8" width="2" height="11"/>
		<rect x="469.8" y="118.7" class="st8" width="2" height="11"/>
		<rect x="590.8" y="110.4" class="st8" width="95" height="15.7"/>
		<rect x="719.2" y="1.5" class="st8" width="58" height="101.8"/>
		<rect x="773.8" y="1.5" class="st8" width="58.7" height="108.8"/>
		<rect x="839.5" y="1.5" class="st8" width="115.3" height="113.2"/>
		<rect x="973.5" y="1.5" class="st8" width="59.3" height="108.8"/>
		<rect x="1039.8" y="1.5" class="st8" width="89.3" height="113.2"/>
		<polygon class="st8" points="984.8,1.5 912.2,1.5 912.2,131.7 973.5,131.7 984.8,121.7 		"/>
		<rect x="1207.5" y="1.5" class="st8" width="183" height="111"/>
		<polygon class="st8" points="1207.5,112.5 1237.8,129.7 1354.8,129.7 1391.2,112.5 		"/>
		<rect x="1243.5" y="129.9" class="st8" width="17.3" height="5.2"/>
		<rect x="1269.5" y="129.9" class="st8" width="12" height="5.2"/>
		<rect x="1305.5" y="129.9" class="st8" width="12" height="5.2"/>
		<rect x="1290" y="129.9" class="st8" width="6" height="5.2"/>
		<polygon class="st8" points="884,1.5 786.5,1.5 786.5,110.4 796.5,126 884,126 		"/>
		<rect x="1027" y="1.5" class="st8" width="19.5" height="94"/>
		<rect x="1528.5" y="1.5" class="st8" width="59.7" height="111.8"/>
		<rect x="1596.5" y="1.5" class="st8" width="82.5" height="111.8"/>
		<polygon class="st8" points="1783.5,1.5 1768.7,1.5 1768.7,1.5 1783.5,1.5 		"/>
		<polygon class="st8" points="1785.5,1.5 1766.7,1.5 1770.7,88.9 1781.5,88.9 		"/>
		<path class="st8" d="M1769,93c0-5.5,3.2-91.5,7.1-91.5s7.1,86,7.1,91.5s-3.2,10-7.1,10S1769,98.6,1769,93z"/>
		<polygon class="st8" points="1777.5,101.2 1774.7,101.2 1775.7,119.4 1776.5,119.4 		"/>
		<polygon class="st8" points="1212.5,1.5 1120,1.5 1120,1.5 1212.5,1.5 		"/>
		<rect x="184.8" y="1.5" class="st8" width="37.7" height="94"/>
		<g>
			<rect x="1420" y="1.5" class="st8" width="2.9" height="94.1"/>
			<circle class="st8" cx="1421.4" cy="105.6" r="16"/>
		</g>
		<g>
			<rect x="1153.6" y="1.5" class="st8" width="2.9" height="94.1"/>
			<circle class="st8" cx="1155.1" cy="105.6" r="16"/>
		</g>
		<g>
			<rect x="1187.9" y="1.5" class="st8" width="2.3" height="87.7"/>
			<path class="st8" d="M1201.7,97c0-7-5.7-95.5-12.6-95.5s-12.6,88.5-12.6,95.5c0,7,5.7,12.6,12.6,12.6S1201.7,104,1201.7,97z"/>
		</g>
		<g>
			<rect x="1459.6" y="1.5" class="st8" width="2.9" height="94.1"/>
			<circle class="st8" cx="1461" cy="105.6" r="16"/>
		</g>
		<g>
			<rect x="1499.1" y="1.5" class="st8" width="2.9" height="94.2"/>
			<circle class="st8" cx="1500.5" cy="105.7" r="16"/>
		</g>
		<g>
			<rect x="1808.4" y="1.5" class="st8" width="2.1" height="86"/>
			<path class="st8" d="M1819.4,93.5c0-1.5,1.5-1.5,1-2.8c-0.5-1.4-1.3-2.7-2.4-3.8c-1.3-1.4,3.1-84.7,1.2-85.3
				c-1.2-0.4-8.5,0.1-9.8,0c-7.8-0.5-7.4-2.4-9.5,0c-0.9,1,1.7,87.3,1.2,88.7c-0.5,1.3-4.5,1.3-4.5,2.8c0,0.8,3.5,2.9,3.7,3.7
				c0.4,2.1-0.9,4.5,0.5,6.1c1,1.1,3.3-0.7,4.7,0c1.5,0.7,2.2,3.9,4,3.9c1.5,0,2.9-0.3,4.2-0.8c1.7-0.6,2.3-2.5,3.5-3.7
				c1-1,2.6-1.4,3.1-2.7C1820.9,98,1819.4,95.1,1819.4,93.5z"/>
		</g>
		<g>
			<rect x="1838.9" y="1.5" class="st8" width="1.3" height="84.8"/>
			<path class="st8" d="M1845.7,90c0-0.9,0.9-0.9,0.6-1.8c-0.3-0.9-0.8-86-1.5-86.7c-0.8-0.9,1.9,0.4,0.7,0c-0.7-0.2-5.3,0.1-6.1,0
				c-4.8-0.3-4.6-1.5-5.9,0c-0.6,0.6,1.1,85.6,0.7,86.4c-0.3,0.8-2.8,0.8-2.8,1.8c0,0.5,2.2,1.8,2.3,2.3c0.3,1.3-0.6,2.8,0.3,3.8
				c0.6,0.7,2-0.4,2.9,0c0.9,0.5,1.4,2.4,2.5,2.4c0.9,0,1.8-0.2,2.6-0.5c1-0.4,1.5-1.5,2.2-2.3c0.6-0.6,1.6-0.9,2-1.7
				C1846.6,92.8,1845.7,91,1845.7,90z"/>
		</g>
		<g>
			<rect x="1703" y="1.5" class="st8" width="2" height="91.1"/>
			<polygon class="st8" points="1703.3,107.4 1714.3,1.5 1693.2,1.5 			"/>
		</g>
		<g>
			<rect x="1729.3" y="1.5" class="st8" width="2" height="91.1"/>
			<polygon class="st8" points="1729.6,107.4 1740.6,1.5 1719.5,1.5 			"/>
		</g>
		<polygon class="st8" points="154.1,128 112.2,128 112.2,162.7 133.4,172.7 154.1,162.7 		"/>
		<path class="st8" d="M1843.7,1.5h-46.8c0,0-3.4-3.4-3.7,0c-0.3,3.4,1-0.3,3.7,0c2.7,0.3,5.7,0.2,7.6,0c1.8-0.2,5,0,7.6,0
			c2.5,0,3.4,0.3,5.2,0c1.8-0.3,5.4,0.3,8.6,0c3.2-0.3,3.4,0.8,5.9,0c2.5-0.8,3.2,0.2,6.9,0c3.7-0.2,2.2,1.2,3.5,0
			c1.3-1.2,3.9,2.2,4.7,0C1847.6-0.7,1843.7,1.5,1843.7,1.5z"/>
		<rect x="1535.2" y="110.9" class="st8" width="46.8" height="6.7"/>
		<rect x="1562" y="114.2" class="st8" width="16.8" height="17.4"/>
		<rect x="1605.7" y="112.1" class="st8" width="1" height="13.5"/>
		<rect x="1611.8" y="112.1" class="st8" width="1" height="13.5"/>
		<rect x="1805.8" y="1.5" class="st8" width="92.2" height="183.8"/>
		<rect x="1697.2" y="1.5" class="st8" width="108.7" height="151.2"/>
		<rect x="1836.5" y="185.4" class="st8" width="34.7" height="8.7"/>
		<rect x="1791" y="1.5" class="st8" width="51" height="206.3"/>
		<polygon class="st8" points="1793.2,1.5 1586.5,1.5 1586.5,172 1601.5,181 1783.2,181 1793.2,172.9 		"/>
		<rect x="1779.5" y="150.4" class="st8" width="11.5" height="24.3"/>
		<rect x="973.5" y="1.5" class="st8" width="129.7" height="187.2"/>
		<rect x="1183.7" y="1.5" class="st8" width="75.7" height="187.2"/>
		<polygon class="st8" points="662.3,1.5 390,1.5 390,188.7 662.3,168.7 		"/>
		<rect x="955.3" y="126" class="st8" width="29.5" height="22"/>
		<rect x="1240.5" y="1.5" class="st8" width="87.3" height="159.2"/>
		<polygon class="st8" points="1305.5,137 1281.5,137 1281.5,177.9 1293,207.9 1305.5,177.9 		"/>
		<polygon class="st8" points="1469.2,1.5 1402.5,1.5 1402.5,199.4 1436.4,234.4 1469.2,199.4 		"/>
		<rect x="1464" y="1.5" class="st8" width="132.5" height="155.2"/>
		<rect x="1323.8" y="1.5" class="st8" width="78.7" height="123.7"/>
		<rect x="1232.5" y="1.5" class="st8" width="28.3" height="123.7"/>
		<rect x="803.2" y="1.5" class="st8" width="156.8" height="199.8"/>
		<rect x="222.2" y="1.5" class="st8" width="91.2" height="172.1"/>
		<rect x="649.5" y="1.5" class="st8" width="91.2" height="141"/>
		<rect x="203.7" y="1.5" class="st8" width="33.8" height="152.1"/>
		<rect x="769.5" y="98.3" class="st8" width="39" height="95.8"/>
		<rect x="574.8" y="1.5" class="st8" width="60" height="192.5"/>
		<polygon class="st8" points="733.8,98.3 773.8,98.3 773.8,157.8 743.5,157.8 733.8,149.8 		"/>
		<rect x="1292.4" y="206.3" class="st8" width="1.2" height="8.8"/>
		<rect x="981.2" y="177.9" class="st8" width="3.7" height="18.2"/>
		
			<rect x="471.8" y="176.8" transform="matrix(0.9966 -8.253411e-02 8.253411e-02 0.9966 -13.3464 40.8558)" class="st8" width="31.3" height="10.2"/>
		<g>
			<rect x="1171.1" y="1.5" class="st8" width="2.9" height="93.6"/>
			
				<ellipse transform="matrix(0.7071 -0.7071 0.7071 0.7071 269.0953 859.8776)" class="st8" cx="1172.5" cy="105.1" rx="16" ry="16"/>
		</g>
		<g>
			<rect x="37.8" y="1.5" class="st8" width="2.9" height="96.3"/>
			<circle class="st8" cx="39.3" cy="107.8" r="16"/>
		</g>
		<g>
			<rect x="1135.4" y="1.5" class="st8" width="1.9" height="86.6"/>
			<path class="st8" d="M1146.8,94.7c0-5.8-4.7-93.1-10.4-93.1s-10.4,87.4-10.4,93.1c0,5.8,4.7,10.4,10.4,10.4
				S1146.8,100.4,1146.8,94.7z"/>
		</g>
		<rect x="351.5" y="1.5" class="st8" width="56" height="242.3"/>
		<polygon class="st8" points="364.2,1.5 327.5,1.5 327.5,150.4 351.5,170.4 364.2,170.4 		"/>
		<g>
			<rect x="695.3" y="1.5" class="st8" width="62.4" height="221.3"/>
			<ellipse class="st8" cx="726.5" cy="222.9" rx="31.2" ry="27.9"/>
		</g>
		<rect x="622.2" y="1.5" class="st8" width="103.7" height="181"/>
		<rect x="740.7" y="1.5" class="st8" width="45.8" height="212.3"/>
		<rect x="1363.2" y="1.5" class="st8" width="124.1" height="212.3"/>
		<polygon class="st8" points="1548.7,1.5 1506.8,1.5 1506.8,190.4 1527.2,214.4 1548.7,190.4 		"/>
		<polygon class="st8" points="1527.3,1.5 1485.5,1.5 1485.5,227.4 1505.8,258.7 1527.3,227.4 		"/>
		<polygon class="st8" points="729.9,249.7 723.2,249.7 726.4,303.4 		"/>
		<rect x="144.5" y="1.5" class="st8" width="30.3" height="247.2"/>
		<polygon class="st8" points="185,1.5 154.7,1.5 154.7,175.5 185,159.2 		"/>
		<polygon class="st8" points="128,1.5 158.3,1.5 158.3,205.5 128,189.2 		"/>
		<rect x="170.8" y="1.5" class="st8" width="55" height="137.9"/>
		<rect x="931.5" y="1.5" class="st8" width="49.7" height="229.5"/>
		<rect x="950.7" y="224.9" class="st8" width="24.5" height="46.2"/>
		<rect x="975.2" y="173.9" class="st8" width="48.2" height="37"/>
		<g>
			<rect x="53.1" y="1.5" class="st8" width="2.2" height="104.3"/>
			<circle class="st8" cx="54.2" cy="113.3" r="12"/>
		</g>
		<rect x="1115.8" y="1.5" class="st8" width="84.7" height="351.2"/>
		<rect x="1139.8" y="343.4" class="st8" width="36.7" height="62"/>
		<rect x="1083.2" y="1.5" class="st8" width="38.5" height="241.2"/>
		<rect x="1198.8" y="1.5" class="st8" width="35.7" height="241.2"/>
		<rect x="1200" y="234.7" class="st8" width="1.7" height="12"/>
		<rect x="1205" y="236.7" class="st8" width="1.7" height="12"/>
		<rect x="1210" y="237.7" class="st8" width="1.7" height="12"/>
		<rect x="1215" y="237.7" class="st8" width="1.7" height="12"/>
		<path class="st6" d="M1019,389.9l7.8,21.4h41.3v-36.8l6.7-4.7c0,0-3-277.4-1.7-368.2h-76.3c0,0,8,227.8,8,254.7
			c0,27-7,149.1-7,149.1L1019,389.9z"/>
		<rect x="1216.7" y="1.5" class="st8" width="66.5" height="365.2"/>
		<polygon class="st6" points="1464,1.5 1380.5,1.5 1380.5,343.4 1464,349.4 		"/>
		<polygon class="st8" points="1540.2,289 1492.5,289 1492.5,326.4 1540.2,320.4 		"/>
		<rect x="1500.5" y="1.5" class="st8" width="45" height="298.2"/>
		<rect x="1488.2" y="1.5" class="st8" width="18.7" height="287.5"/>
		<rect x="1485.2" y="1.5" class="st8" width="10.7" height="225.5"/>
		<rect x="1538.5" y="1.5" class="st8" width="20.3" height="263.8"/>
		<rect x="1591.2" y="276.2" class="st8" width="45" height="28.8"/>
		<rect x="1588.2" y="256.4" class="st8" width="8.5" height="41.7"/>
		<polygon class="st8" points="1648.5,1.5 1576.2,1.5 1576.2,252.7 1588.5,262.7 1648.5,262.7 		"/>
		<polygon class="st8" points="1648.5,256.4 1591.2,256.4 1591.2,278.7 1636,278.7 1648.5,268.7 		"/>
		<polygon class="st6" points="1775.6,1.5 1705.6,1.5 1705.6,350.7 1775.6,370.7 		"/>
		<polygon class="st6" points="1767.6,362 1722.9,352 1732.9,376.7 1757.6,376.7 		"/>
		<rect x="1278.5" y="1.5" class="st8" width="65.3" height="347"/>
		<rect x="1291.8" y="343.2" class="st8" width="46" height="17.3"/>
		<rect x="1506.8" y="321" class="st8" width="1.7" height="30.9"/>
		<rect x="834.2" y="1.5" class="st8" width="61.3" height="281.2"/>
		<rect x="856.8" y="283.4" class="st8" width="21.7" height="9.3"/>
		<rect x="622.2" y="1.5" class="st8" width="89.3" height="333.5"/>
		<polygon class="st8" points="685.8,277.7 649.5,297.7 649.5,400 685.8,380 		"/>
		<polygon class="st6" points="444,1.5 371,1.5 371,358.4 381.5,362.4 		"/>
		<polygon class="st6" points="444,1.5 381.5,1.5 381.5,362.4 429.8,362.4 444,342.4 		"/>
		<polygon class="st6" points="397.5,349.9 390,349.9 393,420.4 394.5,420.4 		"/>
		<polygon class="st6" points="187.5,1.5 135,1.5 135,368.7 174,368.7 187.5,338.7 		"/>
		<polygon class="st6" points="136,1.5 120,1.5 120,360.7 136,368.7 		"/>
		<polygon class="st8" points="1871.4,1.5 1815.9,1.5 1815.9,250.4 1830.2,265.4 1871.4,265.4 		"/>
		<rect x="1797.9" y="1.5" class="st8" width="21" height="248.8"/>
		<rect x="1829.4" y="256.4" class="st8" width="42" height="17"/>
		<rect x="1867.9" y="1.5" class="st8" width="21.2" height="251.3"/>
		<polygon class="st8" points="1867.9,270.9 1879.9,264.9 1879.9,250.4 1867.9,250.4 		"/>
		<rect x="1645.5" y="1.5" class="st8" width="53" height="230.3"/>
		<polygon class="st8" points="1695,227.9 1679,227.9 1679,231.9 1695,240.9 		"/>
		<rect x="1461" y="1.5" class="st8" width="43" height="212.3"/>
		<rect x="242.8" y="1.5" class="st8" width="74" height="201.5"/>
		<rect x="281.2" y="1.5" class="st8" width="55" height="259.2"/>
		<polygon class="st8" points="282.2,260.7 267.8,250.7 267.8,201.4 282.2,201.4 		"/>
		<rect x="292.8" y="258.7" class="st8" width="43.3" height="29.7"/>
		<rect x="301.8" y="285" class="st8" width="17" height="8.3"/>
		<rect x="277.2" y="254" class="st8" width="20.3" height="16.1"/>
		<rect x="184.8" y="1.5" class="st8" width="64.7" height="218.8"/>
		<rect x="175.5" y="214" class="st8" width="32.7" height="13.7"/>
		<rect x="231.5" y="220" class="st8" width="8.7" height="11"/>
		<rect x="62.5" y="1.5" class="st8" width="21.3" height="252.5"/>
		<rect x="31.2" y="1.5" class="st8" width="35" height="175.2"/>
		<polygon class="st8" points="113.8,1.5 81.2,1.5 81.2,254.1 113.8,270.1 		"/>
		<rect x="110.5" y="1.5" class="st8" width="17" height="257.2"/>
	</g>
	<g>
		<path class="st5" d="M1612,390.2l17.8-12.6c4.9-3.2,9.3,0.1,9.3,0.1l17.5,12.5c0.4-0.5,0.6-1.1,0.6-1.8V369c0-1.6-1.3-2.9-2.9-2.9
			h-40.2c-1.6,0-2.9,1.3-2.9,2.9v19.4C1611.4,389.1,1611.6,389.7,1612,390.2z"/>
		<path class="st5" d="M1612.4,390.5C1612.4,390.5,1612.4,390.5,1612.4,390.5L1612.4,390.5L1612.4,390.5c0.5,0.4,1.2,0.7,1.9,0.7
			h40.2c0.7,0,1.4-0.3,1.9-0.7h0l-17-9.8c0,0-4-2.8-8.6-0.1L1612.4,390.5L1612.4,390.5z"/>
	</g>
	<g>
		<path class="st10" d="M1134.7,514.6c0-4.3,3.5-7.7,7.7-7.7c4.3,0,7.7,3.5,7.7,7.7s-3.5,7.7-7.7,7.7
			C1138.2,522.4,1134.7,518.9,1134.7,514.6z"/>
		<path class="st10" d="M1123.5,527.9h1.3v0.7c0,0.5,0.4,0.9,0.9,0.9h2.6c0.5,0,0.9-0.4,0.9-0.9v-0.7h2.4c0.3,3.2,2.6,5.7,5.4,5.7
			h10.9c2.8,0,5.1-2.5,5.4-5.7h8.1c2.4,0,4.4-2,4.4-4.4v-19.2c0-2.4-2-4.4-4.4-4.4h-38c-2.4,0-4.4,2-4.4,4.4v19.2
			C1119.1,526,1121.1,527.9,1123.5,527.9z M1148.6,531c0,0.5-0.4,0.9-1,0.9h-10.4c-0.5,0-1-0.4-1-0.9v-1.1c0-0.5,0.4-0.9,1-0.9h10.4
			c0.5,0,1,0.4,1,0.9V531z M1142.5,504.4c5.7,0,10.3,4.6,10.3,10.3c0,5.7-4.6,10.3-10.3,10.3c-5.7,0-10.3-4.6-10.3-10.3
			C1132.2,509,1136.8,504.4,1142.5,504.4z"/>
	</g>
	<g>
		<path class="st4" d="M478.7,476.6c-0.1,0.8-0.2,1.5-0.2,2.3c0,0.8,0.1,1.6,0.2,2.3l2.6,0.8c0.2,0.8,0.4,1.5,0.7,2.2l-1.7,2.1
			c0.7,1.4,1.6,2.6,2.7,3.8l2.6-0.9c0.6,0.5,1.2,1,1.9,1.4l-0.1,2.7c1.4,0.7,2.9,1.2,4.4,1.4l1.5-2.2c0.4,0,0.8,0.1,1.2,0.1
			c0.4,0,0.8,0,1.2-0.1l1.5,2.2c1.6-0.3,3-0.8,4.4-1.4l-0.1-2.7c0.7-0.4,1.3-0.9,1.9-1.4l2.6,0.9c1.1-1.1,2-2.4,2.7-3.8l-1.7-2.1
			c0.3-0.7,0.5-1.4,0.7-2.2l2.6-0.8c0.1-0.8,0.2-1.5,0.2-2.3c0-0.8-0.1-1.6-0.2-2.3l-2.6-0.8c-0.2-0.8-0.4-1.5-0.7-2.2l1.7-2.1
			c-0.7-1.4-1.7-2.7-2.7-3.8l-2.6,0.9c-0.6-0.5-1.2-1-1.9-1.4l0.1-2.7c-1.4-0.7-2.9-1.2-4.4-1.4l-1.5,2.2c-0.4,0-0.8-0.1-1.2-0.1
			c-0.4,0-0.8,0-1.2,0.1l-1.5-2.2c-1.6,0.3-3,0.8-4.4,1.4l0.1,2.7c-0.7,0.4-1.3,0.9-1.9,1.4l-2.6-0.9c-1.1,1.1-2,2.4-2.7,3.8
			l1.7,2.1c-0.3,0.7-0.5,1.4-0.7,2.2L478.7,476.6z M494.6,467.9c6.1,0,11.1,5,11.1,11.1c0,6.1-5,11.1-11.1,11.1
			c-6.1,0-11.1-5-11.1-11.1C483.5,472.8,488.4,467.9,494.6,467.9z"/>
		<path class="st4" d="M470.3,457.4c0,0.5,0,0.9,0,1.4l-1.3,1c0.2,0.9,0.5,1.8,0.9,2.6l1.6-0.1c0.3,0.4,0.5,0.8,0.8,1.1l-0.5,1.5
			c0.7,0.6,1.4,1.1,2.3,1.6l1.2-1c0.2,0.1,0.4,0.2,0.7,0.2c0.2,0.1,0.4,0.1,0.7,0.2l0.5,1.5c0.9,0.1,1.9,0.1,2.8-0.1l0.4-1.6
			c0.4-0.1,0.9-0.3,1.3-0.5l1.3,0.9c0.8-0.5,1.5-1,2.2-1.7l-0.6-1.5c0.3-0.4,0.5-0.7,0.8-1.1l1.6,0c0.2-0.4,0.4-0.9,0.5-1.3
			c0.1-0.5,0.2-0.9,0.3-1.4l-1.4-0.9c0-0.5,0-0.9,0-1.4l1.3-1c-0.2-0.9-0.5-1.8-0.9-2.6l-1.6,0.1c-0.3-0.4-0.5-0.8-0.8-1.1l0.5-1.5
			c-0.7-0.6-1.4-1.1-2.3-1.6l-1.3,1c-0.2-0.1-0.4-0.2-0.7-0.2c-0.2-0.1-0.4-0.1-0.7-0.2l-0.5-1.5c-0.9-0.1-1.9-0.1-2.8,0.1l-0.4,1.6
			c-0.4,0.1-0.9,0.3-1.3,0.5l-1.3-0.9c-0.8,0.5-1.5,1-2.2,1.7l0.6,1.5c-0.3,0.4-0.5,0.7-0.8,1.1l-1.6,0c-0.2,0.4-0.4,0.9-0.5,1.3
			c-0.1,0.5-0.2,0.9-0.3,1.4L470.3,457.4z M473,456.3c0.9-3,4-4.7,7-3.9c3,0.9,4.7,4,3.9,7c-0.9,3-4,4.7-7,3.9
			C473.8,462.4,472.1,459.3,473,456.3z"/>
		<path class="st4" d="M487.7,478.9c0-3.8,3.1-6.8,6.8-6.8c3.8,0,6.8,3.1,6.8,6.8c0,3.8-3.1,6.8-6.8,6.8
			C490.8,485.8,487.7,482.7,487.7,478.9z"/>
		<path class="st4" d="M486.5,476.3c-0.1,0.4-0.2,0.8-0.3,1.2c-0.1,0.4-0.1,0.8-0.1,1.2l1.3,0.6c0,0.4,0.1,0.8,0.2,1.2l-1.1,1
			c0.3,0.8,0.6,1.5,1.1,2.2l1.4-0.2c0.3,0.3,0.5,0.6,0.8,0.9l-0.3,1.4c0.7,0.5,1.4,0.9,2.2,1.1l1-1c0.2,0,0.4,0.1,0.6,0.1
			c0.2,0,0.4,0.1,0.6,0.1l0.6,1.3c0.8,0,1.7-0.1,2.4-0.4l0.2-1.4c0.4-0.1,0.7-0.3,1.1-0.5l1.2,0.7c0.7-0.5,1.3-1.1,1.8-1.7l-0.7-1.3
			c0.2-0.3,0.4-0.7,0.6-1.1l1.4-0.2c0.1-0.4,0.2-0.8,0.3-1.2c0.1-0.4,0.1-0.8,0.1-1.2l-1.3-0.6c0-0.4-0.1-0.8-0.2-1.2l1.1-1
			c-0.3-0.8-0.6-1.5-1.1-2.2l-1.4,0.2c-0.3-0.3-0.5-0.6-0.9-0.9l0.3-1.4c-0.7-0.5-1.4-0.9-2.2-1.1l-1,1c-0.2-0.1-0.4-0.1-0.6-0.1
			c-0.2,0-0.4-0.1-0.6-0.1l-0.6-1.3c-0.8,0-1.7,0.1-2.4,0.4l-0.2,1.4c-0.4,0.2-0.7,0.3-1.1,0.5l-1.2-0.7c-0.7,0.5-1.3,1.1-1.8,1.7
			l0.7,1.3c-0.2,0.3-0.4,0.7-0.6,1.1L486.5,476.3z"/>
	</g>
	<g>
		<path class="st11" d="M190.9,472.1c-0.5,0.2-2.4-0.3-3.2-0.3c-1.5,0-3.1,0.3-4.6,0.8c-2.9,1.1-5.6,3.7-7.9,5.9
			c-2.4,2.2-5.6,3.8-8.2,5.9c-1.3,1.1-2.3,1.7-3.3,3.1c-0.4,0.7-1.7,3.3-2.9,2.9c-2.7-0.9,0.1-7,0.9-8.3c1-1.3,2.3-2.3,3.3-3.5
			c0.8-0.8,2.8-2.2,2.5-3.5c-0.6-2.3-5.8-3-7.7-3.5c-1.6-0.5-2.7-1-3.6-2.4c-0.8-1.1-1.6-2.8-0.8-4.1c0.8-1.2,2.2-0.9,3.4-1.1
			c-1.2-0.7-1.1-2.6-0.6-3.7c0.8-1.4,2.4-1.8,3.8-1.7c-1.5-0.5-1.2-2.6-0.4-3.6c1-1.3,2.5-0.8,3.2-2.3c0.7-1.5,1.1-2.5,2.6-3.3
			c1.6-0.9,2.9-0.6,4.5-0.2c2.8,0.6,3.7,0.5,6.4,1.6c2.7,1,6.2,3.7,9.5,4.6c1.6,0.4,3.3,0.7,4.9,0.9c1.1,0.2,3.7-0.3,4.2,0.3
			L190.9,472.1z"/>
	</g>
	<path class="st0" d="M522.7,374.1c2.1,4.2,7.3,5.8,11.4,3.7c3.5-1.8,5.2-5.8,4.4-9.4l11.1-5.7c0.6-0.3,0.8-1,0.5-1.6l-0.8-1.5
		c-0.3-0.6-1-0.8-1.6-0.5l-11,5.7c-2.5-2.9-6.8-3.8-10.3-2C522.1,364.8,520.5,369.9,522.7,374.1z M535.7,367.3
		c1.6,3,0.4,6.8-2.7,8.4c-3,1.6-6.8,0.4-8.4-2.7c-1.6-3-0.4-6.8,2.7-8.4C530.4,363.1,534.1,364.3,535.7,367.3z"/>
	<g>
		<path class="st3" d="M757.8,484.8c-2.1-2.2-1.9-5.7,0.3-7.7c2.2-2.1,5.7-1.9,7.7,0.3c2.1,2.2,1.9,5.7-0.3,7.7
			C763.4,487.1,759.9,487,757.8,484.8z"/>
		<g>
			<path class="st3" d="M749,486c0.1-0.1,0.3-0.2,0.4-0.3c1.1-0.7,2.6-0.3,3.3,0.8c0.4,0.7,0.9,1.3,1.4,1.9c4,4.3,10.8,4.5,15.1,0.5
				c0.6-0.5,1.1-1.1,1.5-1.7c0.8-1.1,2.2-1.3,3.3-0.6c1.1,0.8,1.3,2.2,0.6,3.3c-0.6,0.9-1.3,1.7-2.1,2.5c-6.2,5.8-16,5.5-21.8-0.7
				c-0.8-0.8-1.4-1.7-2-2.7C748,488,748.2,486.7,749,486z"/>
		</g>
		<g>
			<path class="st3" d="M740.6,493.1c0.1-0.1,0.2-0.1,0.2-0.2c1.1-0.8,2.5-0.5,3.3,0.5c0.6,0.8,1.2,1.6,1.9,2.3
				c8.5,9.1,22.8,9.6,31.9,1.1c0.5-0.5,1-1,1.5-1.5c0.9-1,2.4-1.1,3.4-0.2c1,0.9,1.1,2.4,0.2,3.4c-0.6,0.6-1.2,1.3-1.8,1.9
				c-11,10.3-28.3,9.7-38.6-1.3c-0.8-0.9-1.6-1.8-2.3-2.8C739.6,495.2,739.8,493.9,740.6,493.1z"/>
		</g>
	</g>
	<g>
		<path class="st5" d="M1770.6,428.7c0-1.2,1-2.1,2.1-2.1h5.9c1.2,0,2.1,1,2.1,2.1v27.8c0,1.2-1,2.1-2.1,2.1h-5.9
			c-1.2,0-2.1-1-2.1-2.1V428.7z"/>
		<path class="st5" d="M1754.7,428.7c0-1.2,1-2.1,2.1-2.1h5.9c1.2,0,2.1,1,2.1,2.1v17.1c0,1.2-1,2.1-2.1,2.1h-5.9
			c-1.2,0-2.1-1-2.1-2.1V428.7z"/>
		<path class="st5" d="M1738.8,428.7c0-1.2,1-2.1,2.1-2.1h5.9c1.2,0,2.1,1,2.1,2.1v6.4c0,1.2-1,2.1-2.1,2.1h-5.9
			c-1.2,0-2.1-1-2.1-2.1V428.7z"/>
		<g>
			<path class="st5" d="M1738.8,421.5h42c0.6,0,1.1,0.5,1.1,1.1s-0.5,1.1-1.1,1.1h-42c-0.6,0-1.1-0.5-1.1-1.1
				S1738.2,421.5,1738.8,421.5z"/>
		</g>
	</g>
	<path class="st0" d="M1553.2,478.3c0.7,0,1.4-0.1,2-0.2l2.1,9.7c0.1,0.2,0.3,0.4,0.5,0.4l4.6-0.1c0.3,0,0.5-0.2,0.5-0.5
		c0-0.3-0.2-0.5-0.5-0.5c0,0,0,0,0,0l-4.2,0.1l-1-4.8l21-1.9l1.9,4.2h-3.8c-0.3,0-0.5,0.2-0.5,0.5s0.2,0.5,0.5,0.5h4.6c0,0,0,0,0,0
		h2.7c0.3,0,0.5-0.2,0.5-0.5s-0.2-0.5-0.5-0.5h-2.4l-2.1-4.6l4-4.4c1.9,1.6,4.4,2.6,7,2.6c6.1,0,11-4.9,11-11c0-6.1-4.9-11-11-11
		c-5.9,0-10.7,4.6-11,10.4h-3c-0.3-1.6-1.7-2.9-3.4-2.9c-1.9,0-3.5,1.6-3.5,3.5c0,0.6,0.2,1.2,0.5,1.7l-13.1,10.9l-0.5-2.1
		c4.6-1.3,8-5.5,8-10.6c0-6.1-4.9-11-11-11c-6.1,0-11,4.9-11,11C1542.2,473.4,1547.1,478.3,1553.2,478.3z M1583.5,473.8
		c-1.5-1.6-2.5-3.7-2.6-6h6.5c0.1,0.4,0.3,0.8,0.5,1.2L1583.5,473.8z M1590.2,458c5.1,0,9.3,4.2,9.3,9.3c0,5.1-4.2,9.3-9.3,9.3
		c-2.2,0-4.3-0.8-5.9-2.1l4.5-4.9c0.4,0.3,0.9,0.4,1.4,0.4c1.5,0,2.8-1.2,2.8-2.8c0-1.5-1.2-2.8-2.8-2.8c-1.4,0-2.5,1-2.7,2.3h-6.5
		C1581.2,461.9,1585.2,458,1590.2,458z M1576.2,467.8h3c0.1,2.8,1.3,5.4,3.2,7.3l-3.7,4.1l-4-8.9
		C1575.4,469.8,1576.1,468.9,1576.2,467.8z M1570.4,469.9c0.6,0.6,1.4,0.9,2.3,0.9c0.3,0,0.6,0,0.8-0.1l4.1,8.9l-20.7,1.8l-0.1-0.3
		L1570.4,469.9z M1553.2,458c5.1,0,9.3,4.2,9.3,9.3c0,4.2-2.8,7.8-6.6,8.9l-1.7-7.9c0.6-0.3,1.1-1,1.1-1.8c0-1.1-0.9-2-2-2
		c-1.1,0-2,0.9-2,2c0,1.1,0.9,2,1.9,2l1.7,7.9c-0.5,0.1-1.1,0.2-1.6,0.2c-5.1,0-9.3-4.2-9.3-9.3C1543.9,462.2,1548,458,1553.2,458z"
		/>
	<g>
		<g>
			<path class="st12" d="M1244.9,407.7c0-1.2,1-2.2,2.2-2.2c1.2,0,2.2,1,2.2,2.2c0,1.2-1,2.2-2.2,2.2
				C1245.9,409.9,1244.9,408.9,1244.9,407.7z"/>
		</g>
		<g>
			<path class="st12" d="M1264.3,407.7c0-1.2,1-2.2,2.2-2.2c1.2,0,2.2,1,2.2,2.2c0,1.2-1,2.2-2.2,2.2
				C1265.3,409.9,1264.3,408.9,1264.3,407.7z"/>
		</g>
		<path class="st12" d="M1265.1,415.7h-19.7c-1.7,0-2.2,1.6-2.3,2.1l-4.8,14.1c-0.2,0.6,0,1.2,0.3,1.7c0.5,0.6,1.2,1,2,1h29.2
			c0.6,0,1.1-0.2,1.5-0.5l1.7,4.4c0.1,0.3,0.3,0.4,0.6,0.5l8,1c0.4,0.1,0.8-0.2,0.8-0.7c0.1-0.4-0.2-0.8-0.7-0.8l-7.5-0.9l-2.1-5.7
			c0,0,0,0,0,0l-4.8-14.1c-0.1-0.2-0.2-0.6-0.4-0.9l2.5-4.1c0.2-0.3,0.2-0.7,0-1c-0.2-0.3-0.5-0.5-0.9-0.5h-25.1c-0.6,0-1,0.5-1,1
			c0,0.6,0.5,1,1,1h23.4l-1.5,2.5C1265.3,415.7,1265.2,415.7,1265.1,415.7z M1270.4,432.4c0,0.1-0.2,0.2-0.5,0.2h-29.2
			c-0.2,0-0.5-0.2-0.5-0.2l4.8-14.1c0.2-0.8,0.4-0.8,0.5-0.8h19.7c0.1,0,0.3,0,0.5,0.8L1270.4,432.4z"/>
	</g>
	<g>
		<path class="st3" d="M626.8,464.1c9.9,0,17.5,1.5,18.8,4.7h0.3c0-10.4-5-18.7-12.1-22.4c-3.7-0.8-11.1-0.8-14.8,0
			c-7.1,3.7-12.1,12-12.1,22.4h0.2C608.5,465.5,616.9,464.1,626.8,464.1z"/>
		<path class="st3" d="M626.8,466.7c11.2,0,18.7,2,18.7,4c0,1-1.9,2-5.2,2.7c-3.5,0.8-8.3,1.2-13.5,1.2c-11.6,0-19.7-2.1-19.7-3.9
			c0-0.7,1.5-1.8,5.7-2.7C616.6,467.2,621.6,466.7,626.8,466.7z"/>
		<path class="st3" d="M611.3,450.2c1.7-1.9,4.3-3.7,6.4-4.9c1.3-0.6,2.9-1,4.7-1.2c1.4,0,2.9-0.1,4.4-0.1c0.7,0,1.3,0,2,0
			c2.3,0.2,4.5,0.7,6.3,1.4c2.2,1.1,4.5,2.9,6.3,4.8c3.5-0.9,4.5-1.9,4.5-3.3c0,0,0,0,0,0c0,0,0,0,0,0c0,0,0,0,0,0c0-2.8-8.1-6-19-6
			c-10.9,0-20,3.3-20,6c0,0,0,0,0,0c0,0,0,0,0,0c0,0,0,0,0,0C606.8,448.4,607.8,449.3,611.3,450.2z"/>
		<path class="st3" d="M604,465.1c0.3,1,0.9,1.9,1.7,2.3c0.1,0,0.1,0,0.2,0.1c0-0.6,0-1.2,0.1-1.8c-0.5-0.5-0.8-1.5-0.9-2.3
			c-0.4-2.3,0.1-4.9,1-7c0.8-1.6,2.1-2.8,3.5-3.4c0.3-0.6,0.7-1.2,1-1.8c-2.5,0.7-4.8,2.7-6,5.7C603.6,459.4,603.2,462.5,604,465.1z
			"/>
	</g>
	<path class="st11" d="M75.4,407.3c8.2,0,14.8-6.6,14.8-14.8c0-4.4-1.9-8.3-4.9-11c-0.3-3.3-1.6-6.3-3.4-8.4v-1.4l-1.4-0.9l1.4-0.9
		v0l-1.4-0.9l1.4-0.9v0l-1.4-0.9l1.4-0.9v0l-1.4-0.9l1.4-0.9v0l-1.4-0.9l1.1-0.7c-0.4-0.9-1.2-1.5-2.2-1.6c-0.5-0.8-2.1-1.4-4-1.4
		c-1.9,0-3.5,0.6-4,1.4c-1,0.2-1.8,0.8-2.2,1.6l1.1,0.7l-1.4,0.9v0l1.4,0.9l-1.4,0.9v0l1.4,0.9L69,368v0l1.4,0.9l-1.4,0.9v0l1.4,0.9
		l-1.4,0.9v1.2c-1.9,2.1-3.2,5.1-3.5,8.5c-3,2.7-4.9,6.7-4.9,11C60.5,400.7,67.2,407.3,75.4,407.3z M76.3,373.5l5.8,18.5
		c-1.4-0.9-4.1-2.2-7.3-2.2c-2.4,0-4.6,0.8-6.6,2.3l5.1-18.5L76.3,373.5z M66.7,382.2c0-0.1,0-0.2,0-0.3c0-3.5,1.6-6.6,4.1-8.3
		c0.6-0.1,1.2-0.1,1.9-0.1l-5.8,20.7l1-0.9c2.1-1.9,4.5-2.9,7-2.9c4.3,0,7.7,2.7,7.7,2.7l1,0.8l-6.4-20.5c0.9,0,1.8,0.1,2.6,0.1
		c2.5,1.7,4.1,4.8,4.1,8.3c0,0,0,0.1,0,0.1c2.9,2.4,4.8,6.1,4.8,10.2c0,7.4-6,13.3-13.3,13.3c-7.4,0-13.3-6-13.3-13.3
		C62,388.3,63.8,384.7,66.7,382.2z"/>
	<g>
		<path class="st13" d="M1313.3,529.2h4.8v5c0,1.7,1.2,3.1,2.8,3.1h20.7c0.4,0,0.7,0.3,0.7,0.7v1.3c0.2,1.3,1.3,2.3,2.6,2.3h0.8v0
			h8.3c0,0,0,0,0.1,0h0.1c1.4,0,2.6-1.2,2.6-2.6v-14c0-0.1,0-0.2,0-0.3V511c0-0.2,0-0.4-0.1-0.6c0.3-1.2-1.3-2.4-2.7-2.4h0h-33.2
			h-0.5c-1.4,0-1.9,1.3-2.6,2.6l-7,16C1310.1,528.1,1311.9,529.2,1313.3,529.2z M1351.4,533h-28.7c-1.1,0-1.9-1-1.9-2.1v-1.6h26.3
			c1.4,0,2.1-1.1,2.6-2.6l3.6-8.4v12.6C1353.3,532,1352.4,533,1351.4,533z"/>
	</g>
	<g>
		<path class="st10" d="M1006.8,472.5c1.5-2,3.5-3.3,5.8-3.3c2.3,0,4.3,1.3,5.8,3.3c5.2-2.9,8.9-9.6,8.9-17.3h-29.4
			C997.9,462.9,1001.5,469.6,1006.8,472.5z"/>
		<path class="st10" d="M1006.7,480.3c0-4.4,2.6-8,5.8-8c3.2,0,5.8,3.6,5.8,8c0,4.4-2.6,8-5.8,8
			C1009.4,488.3,1006.7,484.7,1006.7,480.3z"/>
		<path class="st10" d="M1023.9,476.4c0.9-1.2,2.1-1.9,3.4-1.9c1.3,0,2.5,0.7,3.4,1.9c3.3-1.7,5.7-5.9,5.7-10.7h-9.1
			c-1.7,3.3-4,5.9-6.7,7.7C1021.4,474.7,1022.6,475.8,1023.9,476.4z"/>
		<path class="st10" d="M994.7,476.4c0.9-1.2,2.1-1.9,3.4-1.9c1.3,0,2.5,0.7,3.4,1.9c1.3-0.7,2.4-1.7,3.3-2.9
			c-2.8-1.8-5.2-4.5-6.9-7.8H989C989,470.6,991.4,474.7,994.7,476.4z"/>
		<path class="st10" d="M1023.7,481.2c0-2.7,1.6-4.9,3.6-4.9c2,0,3.6,2.2,3.6,4.9c0,2.7-1.6,4.9-3.6,4.9
			C1025.3,486.1,1023.7,483.9,1023.7,481.2z"/>
		<path class="st10" d="M994.5,481.2c0-2.7,1.6-4.9,3.6-4.9c2,0,3.6,2.2,3.6,4.9c0,2.7-1.6,4.9-3.6,4.9
			C996.1,486.1,994.5,483.9,994.5,481.2z"/>
	</g>
	<g>
		<g>
			<g>
				<path class="st5" d="M1411,405l1.4,0.8c-1.4,2.8,3.5,11.2,6.9,15.8l0.5,0.7l-10.4,6.1l-5-8.3c-0.1-0.2-1.2-2.7,0.4-4.8L1411,405
					z M1417.4,421.8c-1.6-2.3-5.8-8.6-6.7-13.2l-4.6,7.6c-1.1,1.4-0.3,3.1-0.3,3.1l4.1,6.9L1417.4,421.8z"/>
			</g>
			<g>
				<path class="st5" d="M1419.9,394.5l7.3,12.8l-7.3,12.8V413l-7.7,0.1l-0.2-0.5c-1.5-3.5-1.9-5.9-1.1-7.5c0.2-0.5,1.7-3.5,8.5-3.5
					l0,0c0.1,0,0.3,0,0.5,0V394.5z M1425.4,407.3l-3.9-6.8v2.7l-0.8,0c-7.1-0.3-8.3,2.4-8.3,2.4c-0.4,0.8-0.5,2.4,0.9,5.8l8.2-0.1
					v2.7L1425.4,407.3z"/>
			</g>
		</g>
		<g>
			<g>
				<path class="st5" d="M1430,401.2l9.7,0.2c0.2,0,2.9,0.4,3.8,2.9l5.4,10.7l-1.4,0.8c-1.1-1.8-5.8-2.8-13-2.8l0,0
					c-2.3,0-4,0.1-4,0.1l-0.9,0.1L1430,401.2z M1446,412.9l-4-7.9c-0.6-1.7-2.4-1.9-2.5-1.9l-8-0.2l-0.3,8.6c0.7,0,1.9-0.1,3.2-0.1
					l0,0C1439.7,411.4,1443.6,411.9,1446,412.9z"/>
			</g>
			<g>
				<path class="st5" d="M1441.4,411.8l0.5,0.1c3.7,0.6,6,1.6,7,3.1c0.3,0.5,2.1,3.5-1.9,9.5l6,3.8l-14.7-0.7l-6.9-13.1l6,3.8
					L1441.4,411.8z M1447,426.3l-2.3-1.5l0.5-0.7c4.1-5.8,2.4-8.3,2.4-8.3l-0.1-0.1c-0.6-1-2.5-1.8-5.3-2.3l-4.3,7l-2.3-1.4l3.6,6.9
					L1447,426.3z"/>
			</g>
		</g>
		<g>
			<g>
				<path class="st5" d="M1432.6,426.5l10.2,6.3l-5,8.3c-0.1,0.2-1.8,2.4-4.4,1.9l-12-0.5l0-1.6c3.1-0.1,8.2-8.3,10.7-13.5
					L1432.6,426.5z M1440.6,433.3l-7.4-4.5c-1.2,2.5-4.8,9.2-8.5,12.2l8.9,0.4c0.3,0,0.4,0.1,0.5,0.1c1.4,0,2.3-1.2,2.4-1.2
					L1440.6,433.3z"/>
			</g>
			<g>
				<path class="st5" d="M1415.8,427l14.7,0.4l-6.3,3.4l3.7,6.7l-0.3,0.4c-2.3,3-4.3,4.5-6.1,4.5c-0.1,0-0.1,0-0.3,0
					c-1.2,0-4.1-0.6-7-6.3l-6.2,3.3L1415.8,427z M1424.5,428.8l-7.8-0.2l-4.1,6.6l2.4-1.3l0.4,0.8c2.8,5.8,5.5,6.1,6,6.1l0.2,0
					c0.8,0,2.3-0.7,4.6-3.5l-4-7.2L1424.5,428.8z"/>
			</g>
		</g>
	</g>
	<path class="st5" d="M1850.2,354.5l17-16.1h-5.6v-14.6c0-0.2-0.2-0.4-0.5-0.4h-12.2v10.9c0,0.3-0.2,0.5-0.5,0.5h-6.5
		c-0.3,0-0.5-0.2-0.5-0.5v-10.9h-2c-0.3,0-0.5,0.2-0.5,0.4v14.6h-5.6L1850.2,354.5z M1851.8,328.3c0-0.3,0.2-0.5,0.5-0.5h5.9
		c0.3,0,0.5,0.2,0.5,0.5v5.9c0,0.3-0.2,0.5-0.5,0.5h-5.9c-0.3,0-0.5-0.2-0.5-0.5V328.3z"/>
	<g>
		<path class="st14" d="M332.4,480.7h1.5v-0.5v-0.5v-1.9c0-1.5,1.2-2.7,2.7-2.7c1.5,0,2.7,1.2,2.7,2.7v2.8h12.1v-2.8
			c0-1.5,1.2-2.7,2.7-2.7c1.5,0,2.7,1.2,2.7,2.7v1.9v0.5v0.5h1.3c2.3,0,4.1-1.8,4.1-4.1v-25.8c0-2.3-1.8-4.1-4.1-4.1h-25.8
			c-2.3,0-4.1,1.8-4.1,4.1v25.8C328.3,478.9,330.1,480.7,332.4,480.7z M332.4,447.7h25.8c1.7,0,3.1,1.4,3.1,3.1v21.5h-32.1v-21.5
			C329.2,449.1,330.6,447.7,332.4,447.7z"/>
		<path class="st14" d="M352.1,454.1v8.3c1.5-1.2,2.6-1.8,3.1-1.8c0.3,0,0.5,0.1,0.7,0.3c0.2,0.2,0.3,0.4,0.3,0.7
			c0,0.3-0.1,0.5-0.3,0.7c-0.2,0.1-0.5,0.3-1,0.6c-0.7,0.3-1.3,0.7-1.8,1.1c-0.4,0.4-0.8,0.8-1.2,1.3c-0.3,0.5-0.6,0.8-0.7,0.9
			c-0.1,0.1-0.3,0.2-0.6,0.2c-0.3,0-0.6-0.1-0.8-0.4c-0.2-0.2-0.3-0.6-0.3-1v-10.5c0-1.2,0.4-1.8,1.3-1.8c0.4,0,0.7,0.1,0.9,0.4
			C352,453.2,352.1,453.6,352.1,454.1z"/>
		<path class="st14" d="M342,455h-4.8c-0.5,0-0.8-0.1-1.1-0.3c-0.3-0.2-0.4-0.5-0.4-0.8c0-0.3,0.1-0.6,0.3-0.8
			c0.2-0.2,0.5-0.3,0.9-0.3h6.7c0.5,0,0.8,0.1,1.1,0.4c0.3,0.3,0.4,0.6,0.4,0.9c0,0.2-0.1,0.5-0.2,0.9c-0.2,0.4-0.3,0.6-0.5,0.9
			c-0.8,0.8-1.5,1.6-2.2,2.2c-0.7,0.6-1.1,1-1.4,1.2c-0.5,0.4-0.9,0.7-1.2,1.1c-0.3,0.4-0.6,0.7-0.8,1.1c-0.2,0.4-0.3,0.7-0.3,1.1
			c0,0.4,0.1,0.7,0.3,1c0.2,0.3,0.4,0.5,0.8,0.7c0.3,0.2,0.7,0.3,1,0.3c0.8,0,1.4-0.3,1.9-1c0.1-0.1,0.2-0.3,0.3-0.8
			c0.1-0.4,0.3-0.7,0.5-0.9c0.2-0.2,0.4-0.3,0.8-0.3c0.3,0,0.6,0.1,0.8,0.3c0.2,0.2,0.3,0.5,0.3,0.8c0,0.4-0.1,0.9-0.3,1.3
			c-0.2,0.5-0.5,0.9-0.8,1.2c-0.4,0.4-0.9,0.7-1.4,0.9c-0.6,0.2-1.2,0.3-2,0.3c-0.9,0-1.7-0.1-2.4-0.4c-0.4-0.2-0.8-0.5-1.1-0.8
			c-0.3-0.3-0.6-0.7-0.8-1.2c-0.2-0.4-0.3-0.9-0.3-1.4c0-0.8,0.2-1.4,0.6-2.1c0.4-0.6,0.8-1.1,1.1-1.5c0.4-0.4,1-0.9,2-1.7
			c0.9-0.8,1.5-1.3,1.9-1.7C341.7,455.4,341.9,455.2,342,455z"/>
		<path class="st14" d="M352.7,477.6c0-0.8,0.6-1.4,1.4-1.4l0,0c0.8,0,1.4,0.6,1.4,1.4v6.2c0,0.8-0.6,1.4-1.4,1.4l0,0
			c-0.8,0-1.4-0.6-1.4-1.4V477.6z"/>
		<path class="st14" d="M335.1,477.6c0-0.8,0.6-1.4,1.4-1.4l0,0c0.8,0,1.4,0.6,1.4,1.4v6.2c0,0.8-0.6,1.4-1.4,1.4l0,0
			c-0.8,0-1.4-0.6-1.4-1.4V477.6z"/>
	</g>
	<g>
		<g>
			<g>
				<path class="st11" d="M270.7,377.4c0.1,0,0.3,0,0.4,0c1.7,0,3.4-0.5,5.1-1.4c0.5-0.3,1.1-0.1,1.4,0.3c1.3,1.9,3.4,2.2,4.4,2.2
					c2,0,3.9-0.9,4.9-2.3c0.9-1.2,1.1-2.8,0.6-4.5c-0.1-0.3,0-0.7,0.2-1c0.2-0.3,0.5-0.4,0.9-0.4c2.7,0.2,4.9-1.3,5.7-3.8
					c0.5-1.4,0.5-3.1-0.1-4.8h-16.5C270.7,361.7,267.9,370.9,270.7,377.4z"/>
			</g>
			<g>
				<path class="st11" d="M296.2,367.2c-1,3-3.4,4.9-6.5,5.2c0.3,1.8-0.2,3.6-1.2,5c-1.4,2-4,3.2-6.6,3.2c-2.2,0-4.2-0.9-5.6-2.4
					c-1.5,0.7-3,1.1-4.5,1.2c2.3,3.3,6.5,5.2,12.9,3.4c10.2,8.9,19.1-0.4,15.4-8c7.4,0,9.1-11.1,2.5-13.1h-6.4
					C296.8,363.5,296.8,365.4,296.2,367.2z"/>
			</g>
		</g>
		<path class="st11" d="M292.1,358.9h-31.5c-2.3,0.8-3.1,3.2-2.8,5.3c0.3,2.2,2,4.5,4.9,4.5c0.3,0,0.6,0.1,0.8,0.4
			c0.2,0.2,0.3,0.6,0.2,0.9c-0.3,1.5,0.1,3.2,1.3,4.7c1.4,1.8,3.6,2.8,6.1,2.8c1.7,0,3.4-0.5,5.1-1.4c0.5-0.3,1.1-0.1,1.4,0.3
			c1.3,1.9,3.4,2.2,4.4,2.2c2,0,3.9-0.9,4.9-2.3c0.9-1.2,1.1-2.8,0.6-4.5c-0.1-0.3,0-0.7,0.2-1c0.2-0.3,0.5-0.4,0.9-0.4
			c2.7,0.2,4.9-1.3,5.7-3.8C295,364.2,294.6,361,292.1,358.9z"/>
	</g>
	<path class="st0" d="M867.7,467.1c0,9.2,7.5,16.7,16.7,16.7c9.2,0,16.7-7.5,16.7-16.7c0-2.3-0.5-4.4-1.3-6.4c0,0-1.4-2.7-2.1-3.7
		l-13.3-22.3L871.1,457c-0.8,1-2.1,3.7-2.1,3.7C868.2,462.6,867.7,464.8,867.7,467.1z M884.4,454.8c6.8,0,12.3,5.5,12.3,12.3
		c0,6.8-5.5,12.3-12.3,12.3c-6.8,0-12.3-5.5-12.3-12.3C872.1,460.3,877.6,454.8,884.4,454.8z"/>
	<path class="st6" d="M1322.4,461.8L1334,480c0.2,0.4,0.6,0.6,1.1,0.6s0.8-0.2,1.1-0.6l11.6-18.2c0.1-0.2,0.2-0.4,0.2-0.7
		c0-0.4-0.2-0.8-0.6-1.1c-0.6-0.4-1.4-0.2-1.8,0.4l-8.4,13.1V370.3h-4.3v103.3l-8.4-13.1c-0.4-0.6-1.2-0.8-1.8-0.4
		C1322.2,460.5,1322,461.3,1322.4,461.8z"/>
	<path class="st4" d="M554.4,320.8l4.5,7.1c0.1,0.1,0.3,0.2,0.4,0.2s0.3-0.1,0.4-0.2l4.5-7.1c0.1-0.1,0.1-0.2,0.1-0.3
		c0-0.2-0.1-0.3-0.2-0.4c-0.2-0.1-0.5-0.1-0.7,0.2l-3.6,5.7v-32.8h-1v32.8l-3.6-5.7c-0.1-0.2-0.5-0.3-0.7-0.2
		C554.3,320.2,554.2,320.5,554.4,320.8z"/>
	<path class="st15" d="M554.4,270.8l4.5,7.1c0.1,0.1,0.3,0.2,0.4,0.2s0.3-0.1,0.4-0.2l4.5-7.1c0.1-0.1,0.1-0.2,0.1-0.3
		c0-0.2-0.1-0.3-0.2-0.4c-0.2-0.1-0.5-0.1-0.7,0.2l-3.6,5.7v-32.8h-1v32.8l-3.6-5.7c-0.1-0.2-0.5-0.3-0.7-0.2
		C554.3,270.2,554.2,270.5,554.4,270.8z"/>
	<path class="st16" d="M554.4,222.3l4.5,7.1c0.1,0.1,0.3,0.2,0.4,0.2s0.3-0.1,0.4-0.2l4.5-7.1c0.1-0.1,0.1-0.2,0.1-0.3
		c0-0.2-0.1-0.3-0.2-0.4c-0.2-0.1-0.5-0.1-0.7,0.2l-3.6,5.7v-32.8h-1v32.8l-3.6-5.7c-0.1-0.2-0.5-0.3-0.7-0.2
		C554.3,221.7,554.2,222,554.4,222.3z"/>
	<polygon class="st17" points="1449.1,140 1438,156.5 1426.6,140 	"/>
	<polygon class="st18" points="1449.1,168 1438,184.5 1426.6,168 	"/>
	<polygon class="st19" points="1449.1,197 1438,213.5 1426.6,197 	"/>
	<g>
		<polygon class="st20" points="1045.5,236.2 1051.8,245.2 1057.8,236.2 1060.2,237.8 1051.8,250.3 1043.2,237.8 		"/>
	</g>
	<g>
		<polygon class="st20" points="1045.5,250.3 1051.8,259.3 1057.8,250.3 1060.2,251.9 1051.8,264.4 1043.2,251.9 		"/>
	</g>
	<g>
		<polygon class="st6" points="465.9,399.8 478.4,408.2 465.9,416.8 464.3,414.4 473.4,408.2 464.3,402.1 		"/>
	</g>
	<g>
		<polygon class="st6" points="450.4,399.8 462.9,408.2 450.4,416.8 448.8,414.4 457.9,408.2 448.8,402.1 		"/>
	</g>
	<g>
		<polygon class="st6" points="435.9,399.8 448.4,408.2 435.9,416.8 434.3,414.4 443.4,408.2 434.3,402.1 		"/>
	</g>
	<polygon class="st6" points="1094.5,270.5 1099.2,288 1103.9,270.5 1100.9,270.5 1100.9,250.8 1098,250.8 1098,270.5 	"/>
	<g>
		<path class="st3" d="M887.4,350.3c0,2-1.6,3.5-3.5,3.5l0,0c-2,0-3.5-1.6-3.5-3.5l0,0c0-2,1.6-3.5,3.5-3.5l0,0
			C885.8,346.7,887.4,348.3,887.4,350.3z M887.4,361.6c0,2-1.6,3.5-3.5,3.5l0,0c-2,0-3.5-1.6-3.5-3.5l0,0c0-2,1.6-3.5,3.5-3.5l0,0
			C885.8,358.1,887.4,359.6,887.4,361.6z M887.4,372.9c0,2-1.6,3.5-3.5,3.5l0,0c-2,0-3.5-1.6-3.5-3.5l0,0c0-2,1.6-3.5,3.5-3.5l0,0
			C885.8,369.4,887.4,371,887.4,372.9z M887.4,384.3c0,2-1.6,3.5-3.5,3.5l0,0c-2,0-3.5-1.6-3.5-3.5l0,0c0-2,1.6-3.6,3.5-3.6l0,0
			C885.8,380.7,887.4,382.3,887.4,384.3z M887.4,395.6c0,2-1.6,3.5-3.5,3.5l0,0c-2,0-3.5-1.6-3.5-3.5l0,0c0-2,1.6-3.5,3.5-3.5l0,0
			C885.8,392.1,887.4,393.7,887.4,395.6z M887.4,407c0,1.9-1.6,3.5-3.5,3.5l0,0c-2,0-3.5-1.6-3.5-3.5l0,0c0-2,1.6-3.6,3.5-3.6l0,0
			C885.8,403.4,887.4,405,887.4,407z M887.4,418.3c0,2-1.6,3.6-3.5,3.6l0,0c-2,0-3.5-1.6-3.5-3.6l0,0c0-1.9,1.6-3.5,3.5-3.5l0,0
			C885.8,414.7,887.4,416.3,887.4,418.3z"/>
	</g>
	<g>
		<path class="st5" d="M1577.9,205.2c0,2-1.6,3.6-3.5,3.6l0,0c-2,0-3.6-1.6-3.6-3.6l0,0c0-1.9,1.6-3.5,3.6-3.5l0,0
			C1576.3,201.7,1577.9,203.3,1577.9,205.2z M1577.9,219.4c0,2-1.6,3.5-3.5,3.5l0,0c-2,0-3.6-1.6-3.6-3.5l0,0c0-2,1.6-3.5,3.6-3.5
			l0,0C1576.3,215.9,1577.9,217.5,1577.9,219.4z M1577.9,233.6c0,2-1.6,3.5-3.5,3.5l0,0c-2,0-3.6-1.6-3.6-3.5l0,0
			c0-2,1.6-3.5,3.6-3.5l0,0C1576.3,230.1,1577.9,231.6,1577.9,233.6z M1577.9,247.8c0,2-1.6,3.6-3.5,3.6l0,0c-2,0-3.6-1.6-3.6-3.6
			l0,0c0-1.9,1.6-3.5,3.6-3.5l0,0C1576.3,244.2,1577.9,245.8,1577.9,247.8z M1577.9,261.9c0,2-1.6,3.5-3.5,3.5l0,0
			c-2,0-3.6-1.6-3.6-3.5l0,0c0-2,1.6-3.5,3.6-3.5l0,0C1576.3,258.4,1577.9,260,1577.9,261.9z M1577.9,276.1c0,2-1.6,3.5-3.5,3.5l0,0
			c-2,0-3.6-1.6-3.6-3.5l0,0c0-2,1.6-3.5,3.6-3.5l0,0C1576.3,272.6,1577.9,274.2,1577.9,276.1z M1577.9,290.3c0,2-1.6,3.6-3.5,3.6
			l0,0c-2,0-3.6-1.6-3.6-3.6l0,0c0-1.9,1.6-3.5,3.6-3.5l0,0C1576.3,286.7,1577.9,288.3,1577.9,290.3z M1577.9,304.5
			c0,2-1.6,3.5-3.5,3.5l0,0c-2,0-3.6-1.6-3.6-3.5l0,0c0-2,1.6-3.5,3.6-3.5l0,0C1576.3,300.9,1577.9,302.5,1577.9,304.5z
			 M1577.9,318.6c0,2-1.6,3.5-3.5,3.5l0,0c-2,0-3.6-1.6-3.6-3.5l0,0c0-2,1.6-3.5,3.6-3.5l0,0
			C1576.3,315.1,1577.9,316.7,1577.9,318.6z M1577.9,332.8c0,2-1.6,3.6-3.5,3.6l0,0c-2,0-3.6-1.6-3.6-3.6l0,0c0-1.9,1.6-3.5,3.6-3.5
			l0,0C1576.3,329.3,1577.9,330.9,1577.9,332.8z M1577.9,347c0,2-1.6,3.5-3.5,3.5l0,0c-2,0-3.6-1.6-3.6-3.5l0,0c0-2,1.6-3.5,3.6-3.5
			l0,0C1576.3,343.4,1577.9,345,1577.9,347z M1577.9,361.2c0,2-1.6,3.5-3.5,3.5l0,0c-2,0-3.6-1.6-3.6-3.5l0,0c0-2,1.6-3.5,3.6-3.5
			l0,0C1576.3,357.6,1577.9,359.2,1577.9,361.2z M1577.9,375.3c0,2-1.6,3.6-3.5,3.6l0,0c-2,0-3.6-1.6-3.6-3.6l0,0
			c0-1.9,1.6-3.5,3.6-3.5l0,0C1576.3,371.8,1577.9,373.4,1577.9,375.3z M1577.9,389.5c0,2-1.6,3.5-3.5,3.5l0,0c-2,0-3.6-1.6-3.6-3.5
			l0,0c0-2,1.6-3.5,3.6-3.5l0,0C1576.3,386,1577.9,387.5,1577.9,389.5z M1577.9,403.7c0,2-1.6,3.5-3.5,3.5l0,0c-2,0-3.6-1.6-3.6-3.5
			l0,0c0-2,1.6-3.5,3.6-3.5l0,0C1576.3,400.1,1577.9,401.7,1577.9,403.7z M1577.9,417.8c0,2-1.6,3.6-3.5,3.6l0,0
			c-2,0-3.6-1.6-3.6-3.6l0,0c0-1.9,1.6-3.5,3.6-3.5l0,0C1576.3,414.3,1577.9,415.9,1577.9,417.8z M1577.9,432c0,1.9-1.6,3.5-3.5,3.5
			l0,0c-2,0-3.6-1.6-3.6-3.5l0,0c0-2,1.6-3.6,3.6-3.6l0,0C1576.3,428.5,1577.9,430.1,1577.9,432z"/>
	</g>
	<g>
		<path class="st11" d="M79.9,206.5c0,2-1.6,3.5-3.5,3.5l0,0c-2,0-3.5-1.6-3.5-3.5l0,0c0-2,1.6-3.5,3.5-3.5l0,0
			C78.3,203,79.9,204.6,79.9,206.5z M79.9,220.7c0,2-1.6,3.5-3.5,3.5l0,0c-2,0-3.5-1.6-3.5-3.5l0,0c0-2,1.6-3.5,3.5-3.5l0,0
			C78.3,217.2,79.9,218.8,79.9,220.7z M79.9,234.9c0,2-1.6,3.6-3.5,3.6l0,0c-2,0-3.5-1.6-3.5-3.6l0,0c0-1.9,1.6-3.5,3.5-3.5l0,0
			C78.3,231.3,79.9,232.9,79.9,234.9z M79.9,249.1c0,2-1.6,3.5-3.5,3.5l0,0c-2,0-3.5-1.6-3.5-3.5l0,0c0-2,1.6-3.5,3.5-3.5l0,0
			C78.3,245.5,79.9,247.1,79.9,249.1z M79.9,263.2c0,2-1.6,3.5-3.5,3.5l0,0c-2,0-3.5-1.6-3.5-3.5l0,0c0-2,1.6-3.5,3.5-3.5l0,0
			C78.3,259.7,79.9,261.3,79.9,263.2z M79.9,277.4c0,2-1.6,3.6-3.5,3.6l0,0c-2,0-3.5-1.6-3.5-3.6l0,0c0-1.9,1.6-3.5,3.5-3.5l0,0
			C78.3,273.9,79.9,275.5,79.9,277.4z M79.9,291.6c0,2-1.6,3.5-3.5,3.5l0,0c-2,0-3.5-1.6-3.5-3.5l0,0c0-2,1.6-3.6,3.5-3.6l0,0
			C78.3,288,79.9,289.6,79.9,291.6z M79.9,305.8c0,2-1.6,3.5-3.5,3.5l0,0c-2,0-3.5-1.6-3.5-3.5l0,0c0-2,1.6-3.5,3.5-3.5l0,0
			C78.3,302.2,79.9,303.8,79.9,305.8z M79.9,319.9c0,2-1.6,3.6-3.5,3.6l0,0c-2,0-3.5-1.6-3.5-3.6l0,0c0-1.9,1.6-3.5,3.5-3.5l0,0
			C78.3,316.4,79.9,318,79.9,319.9z M79.9,334.1c0,2-1.6,3.5-3.5,3.5l0,0c-2,0-3.5-1.6-3.5-3.5l0,0c0-2,1.6-3.6,3.5-3.6l0,0
			C78.3,330.6,79.9,332.1,79.9,334.1z M79.9,348.3c0,2-1.6,3.5-3.5,3.5l0,0c-2,0-3.5-1.6-3.5-3.5l0,0c0-2,1.6-3.5,3.5-3.5l0,0
			C78.3,344.7,79.9,346.3,79.9,348.3z"/>
	</g>
	<g>
		<g>
			<path class="st11" d="M76.3,415c0.9,0,1.8,0.4,2.5,1c0.7,0.7,1,1.6,1,2.5c0,0.9-0.4,1.9-1,2.5c-0.7,0.7-1.6,1-2.5,1
				c-0.9,0-1.8-0.4-2.5-1c-0.7-0.7-1-1.6-1-2.5c0-0.9,0.4-1.9,1-2.5C74.5,415.4,75.4,415,76.3,415z"/>
		</g>
		<g>
			<path class="st11" d="M79.9,433c0,2-1.6,3.6-3.5,3.6l0,0c-2,0-3.5-1.6-3.5-3.5l0,0c0-2,1.6-3.6,3.5-3.6l0,0
				C78.3,429.5,79.9,431.1,79.9,433z M79.9,447.5c0,2-1.6,3.5-3.5,3.5l0,0c-2,0-3.5-1.6-3.5-3.5l0,0c0-2,1.6-3.5,3.5-3.5l0,0
				C78.3,444,79.9,445.5,79.9,447.5z M79.9,462c0,2-1.6,3.5-3.5,3.5l0,0c-2,0-3.5-1.6-3.5-3.5l0,0c0-2,1.6-3.5,3.5-3.5l0,0
				C78.3,458.4,79.9,460,79.9,462z M79.9,476.4c0,2-1.6,3.5-3.5,3.5l0,0c-2,0-3.5-1.6-3.5-3.5l0,0c0-2,1.6-3.5,3.5-3.5l0,0
				C78.3,472.9,79.9,474.5,79.9,476.4z M79.9,490.9c0,2-1.6,3.5-3.5,3.5l0,0c-2,0-3.5-1.6-3.5-3.5l0,0c0-2,1.6-3.5,3.5-3.5l0,0
				C78.3,487.4,79.9,489,79.9,490.9z M79.9,505.4c0,2-1.6,3.5-3.5,3.5l0,0c-2,0-3.5-1.6-3.5-3.5l0,0c0-2,1.6-3.5,3.5-3.5l0,0
				C78.3,501.9,79.9,503.4,79.9,505.4z M79.9,519.9c0,1.9-1.6,3.5-3.5,3.5l0,0c-2,0-3.5-1.6-3.5-3.5l0,0c0-2,1.6-3.6,3.5-3.6l0,0
				C78.3,516.3,79.9,517.9,79.9,519.9z M79.9,534.3c0,2-1.6,3.6-3.5,3.6l0,0c-2,0-3.5-1.6-3.5-3.6l0,0c0-1.9,1.6-3.5,3.5-3.5l0,0
				C78.3,530.8,79.9,532.4,79.9,534.3z M79.9,548.8c0,2-1.6,3.5-3.5,3.5l0,0c-2,0-3.5-1.6-3.5-3.5l0,0c0-2,1.6-3.5,3.5-3.5l0,0
				C78.3,545.3,79.9,546.9,79.9,548.8z"/>
		</g>
		<g>
			<path class="st11" d="M76.3,559.8c0.9,0,1.8,0.4,2.5,1c0.7,0.7,1,1.6,1,2.5c0,0.9-0.4,1.9-1,2.5c-1.3,1.3-3.7,1.3-5,0
				c-0.7-0.7-1-1.6-1-2.5c0-0.9,0.4-1.8,1-2.5C74.5,560.1,75.4,559.8,76.3,559.8z"/>
		</g>
		<g>
			<path class="st11" d="M93.1,563.3c0,2-1.6,3.5-3.5,3.5l0,0c-2,0-3.5-1.6-3.5-3.5l0,0c0-2,1.6-3.5,3.5-3.5l0,0
				C91.5,559.8,93.1,561.3,93.1,563.3z M106.4,563.3c0,2-1.6,3.5-3.5,3.5l0,0c-2,0-3.5-1.6-3.5-3.5l0,0c0-2,1.6-3.5,3.5-3.5l0,0
				C104.8,559.8,106.4,561.3,106.4,563.3z M119.6,563.3c0,2-1.6,3.5-3.5,3.5l0,0c-2,0-3.5-1.6-3.5-3.5l0,0c0-2,1.6-3.5,3.5-3.5l0,0
				C118,559.8,119.6,561.3,119.6,563.3z M132.9,563.3c0,2-1.6,3.5-3.5,3.5l0,0c-2,0-3.5-1.6-3.5-3.5l0,0c0-2,1.6-3.5,3.5-3.5l0,0
				C131.3,559.8,132.9,561.3,132.9,563.3z M146.1,563.3c0,2-1.6,3.5-3.5,3.5l0,0c-2,0-3.5-1.6-3.5-3.5l0,0c0-2,1.6-3.5,3.5-3.5l0,0
				C144.5,559.8,146.1,561.3,146.1,563.3z M159.4,563.3c0,2-1.6,3.5-3.5,3.5l0,0c-2,0-3.5-1.6-3.5-3.5l0,0c0-2,1.6-3.5,3.5-3.5l0,0
				C157.8,559.8,159.4,561.3,159.4,563.3z"/>
		</g>
		<g>
			<path class="st11" d="M169.1,559.8c0.9,0,1.9,0.4,2.5,1c0.7,0.7,1,1.6,1,2.5c0,0.9-0.4,1.9-1,2.5c-1.3,1.3-3.7,1.3-5,0
				c-0.7-0.7-1-1.6-1-2.5c0-0.9,0.4-1.8,1-2.5C167.2,560.1,168.2,559.8,169.1,559.8z"/>
		</g>
		<g>
			<path class="st11" d="M172.6,533.3c0,2-1.6,3.5-3.5,3.5l0,0c-2,0-3.5-1.6-3.5-3.5l0,0c0-2,1.6-3.5,3.5-3.5l0,0
				C171,529.8,172.6,531.3,172.6,533.3z M172.6,548.3c0,2-1.6,3.5-3.5,3.5l0,0c-2,0-3.5-1.6-3.5-3.5l0,0c0-2,1.6-3.5,3.5-3.5l0,0
				C171,544.8,172.6,546.3,172.6,548.3z"/>
		</g>
		<g>
			<path class="st11" d="M169.1,514.8c0.9,0,1.9,0.4,2.5,1c0.7,0.7,1,1.6,1,2.5c0,0.9-0.4,1.9-1,2.5c-1.3,1.3-3.7,1.3-5,0
				c-0.7-0.6-1-1.6-1-2.5c0-0.9,0.4-1.8,1-2.5C167.2,515.1,168.2,514.8,169.1,514.8z"/>
		</g>
	</g>
	<rect x="719.5" y="1.5" class="st3" width="84.7" height="288.2"/>
	<rect x="743.5" y="280.4" class="st3" width="36.7" height="62"/>
	<rect x="750.1" y="338" class="st3" width="23.6" height="34.4"/>
	<polygon class="st3" points="777.3,371.3 745.8,371.2 762.2,387 	"/>
	<polygon class="st3" points="758.8,378 764.9,378 762.9,457.5 760.8,457.5 	"/>
	<rect x="798.4" y="1.5" class="st3" width="38.5" height="178.2"/>
	<rect x="685.5" y="1.5" class="st3" width="35.7" height="178.2"/>
	<rect x="802.5" y="288.5" class="st3" width="1.7" height="12"/>
	<rect x="797.5" y="288.5" class="st3" width="1.7" height="12"/>
	<rect x="792.5" y="287.5" class="st3" width="1.7" height="12"/>
	<rect x="779.5" y="342.4" class="st3" width="0.7" height="5.9"/>
	<rect x="777.6" y="342.4" class="st3" width="0.7" height="5.9"/>
	<rect x="775.6" y="340.4" class="st3" width="0.7" height="5.9"/>
	<rect x="747.5" y="340.4" class="st3" width="0.7" height="5.9"/>
	<rect x="745.5" y="342.4" class="st3" width="0.7" height="5.9"/>
	<rect x="743.5" y="342.4" class="st3" width="0.7" height="5.9"/>
	<rect x="787.5" y="285.5" class="st3" width="1.7" height="12"/>
	<rect x="782.5" y="285.5" class="st3" width="1.7" height="12"/>
	<rect x="835.1" y="175.2" class="st3" width="1.7" height="12"/>
	<rect x="830.1" y="175.2" class="st3" width="1.7" height="12"/>
	<rect x="825.1" y="174.2" class="st3" width="1.7" height="12"/>
	<rect x="820.1" y="172.2" class="st3" width="1.7" height="12"/>
	<rect x="815.1" y="172.2" class="st3" width="1.7" height="12"/>
	<rect x="739.5" y="285.5" class="st3" width="1.7" height="12"/>
	<rect x="734.5" y="285.5" class="st3" width="1.7" height="12"/>
	<rect x="729.5" y="287.5" class="st3" width="1.7" height="12"/>
	<rect x="724.5" y="288.5" class="st3" width="1.7" height="12"/>
	<rect x="719.5" y="288.5" class="st3" width="1.7" height="12"/>
	<rect x="718.3" y="171.7" class="st3" width="1.7" height="12"/>
	<rect x="713.3" y="173.7" class="st3" width="1.7" height="12"/>
	<rect x="708.3" y="174.7" class="st3" width="1.7" height="12"/>
	<rect x="703.3" y="174.7" class="st3" width="1.7" height="12"/>
	<path class="st3" d="M911.2,363.7l-18-15.4h-41.3v-36.8l-6.7-4.7c0,0,3-214.4,1.7-305.2h76.3c0,0-8,164.8-8,191.7s7,149.1,7,149.1
		L911.2,363.7z"/>
	<rect x="636.8" y="1.5" class="st3" width="66.5" height="302.2"/>
	<rect x="659.5" y="297.5" class="st3" width="26" height="22.5"/>
	<polygon class="st4" points="456,1.5 539.5,1.5 539.5,280.4 456,286.4 	"/>
	<rect x="487" y="274.9" class="st4" width="2.5" height="42"/>
	<rect x="489.5" y="274.9" class="st4" width="20" height="10.7"/>
	<rect x="509.5" y="274.9" class="st4" width="22.5" height="8.5"/>
	<polygon class="st4" points="379.8,226 427.5,226 427.5,263.4 379.8,257.4 	"/>
	<rect x="374.5" y="1.5" class="st4" width="45" height="235.2"/>
	<rect x="413.2" y="1.5" class="st4" width="18.7" height="224.5"/>
	<rect x="424.2" y="1.5" class="st3" width="10.7" height="162.5"/>
	<rect x="361.2" y="1.5" class="st4" width="20.3" height="200.8"/>
	<rect x="283.8" y="213.2" class="st11" width="45" height="28.8"/>
	<rect x="323.3" y="193.4" class="st11" width="8.5" height="41.7"/>
	<rect x="271.5" y="1.5" class="st11" width="72.3" height="198.2"/>
	<rect x="271.5" y="193.4" class="st11" width="57.3" height="22.3"/>
	<rect x="144.4" y="1.5" class="st11" width="70" height="306.2"/>
	<polygon class="st11" points="152.4,299 197.1,299 187.1,313.7 162.4,313.7 	"/>
	<rect x="576.2" y="1.5" class="st3" width="65.3" height="284"/>
	<rect x="582.2" y="280.2" class="st3" width="46" height="17.3"/>
	<rect x="613.5" y="295.9" class="st3" width="1.3" height="49.4"/>
	<rect x="598.2" y="294.5" class="st3" width="15.3" height="6"/>
	<rect x="600.2" y="299.5" class="st3" width="8.3" height="4.2"/>
	<rect x="499.5" y="283.4" class="st4" width="2" height="11.2"/>
	<rect x="411.5" y="258" class="st4" width="1.7" height="30.9"/>
	<rect x="529.8" y="279.1" class="st4" width="2.2" height="9.8"/>
	<rect x="1024.5" y="1.5" class="st10" width="61.3" height="218.2"/>
	<rect x="1031.2" y="213.7" class="st10" width="49.3" height="13.3"/>
	<rect x="1041.5" y="220.4" class="st10" width="21.7" height="9.3"/>
	<rect x="1176.5" y="1.5" class="st19" width="121.3" height="250.5"/>
	<rect x="1204.2" y="234.7" class="st19" width="66.3" height="22.3"/>
	<polygon class="st5" points="1476,1.5 1549,1.5 1549,295.4 1538.5,299.4 	"/>
	<rect x="1476" y="1.5" class="st5" width="62.5" height="297.8"/>
	<polygon class="st5" points="1522.5,286.9 1530,286.9 1527,357.4 1525.5,357.4 	"/>
	<rect x="1732.5" y="1.5" class="st21" width="52.5" height="304.2"/>
	<polygon class="st21" points="1784,1.5 1800,1.5 1800,297.7 1784,305.7 	"/>
	<rect x="1753" y="305.7" class="st21" width="2" height="23"/>
	<rect x="1780" y="300.2" class="st21" width="3" height="28.5"/>
	<rect x="48.6" y="1.5" class="st11" width="55.5" height="200.8"/>
	<rect x="101.1" y="1.5" class="st11" width="21" height="185.8"/>
	<rect x="48.6" y="193.4" class="st11" width="42" height="17"/>
	<rect x="30.9" y="1.5" class="st11" width="21.2" height="188.3"/>
	<polygon class="st11" points="52.1,207.9 40.1,201.9 40.1,187.4 52.1,187.4 	"/>
	<rect x="221.5" y="1.5" class="st11" width="53" height="167.3"/>
	<polygon class="st11" points="225,164.9 241,164.9 241,189.9 225,177.9 	"/>
	<rect x="416" y="1.5" class="st3" width="43" height="149.3"/>
	<rect x="1603.2" y="1.5" class="st12" width="54" height="138.5"/>
	<rect x="1573.8" y="1.5" class="st5" width="65" height="196.2"/>
	<polygon class="st5" points="1637.8,197.7 1652.2,187.7 1652.2,138.4 1637.8,138.4 	"/>
	<rect x="1583.8" y="195.7" class="st5" width="43.3" height="29.7"/>
	<rect x="1601.2" y="222" class="st5" width="17" height="8.3"/>
	<rect x="1622.5" y="191" class="st5" width="20.3" height="16.1"/>
	<rect x="1636.2" y="203" class="st5" width="1.7" height="27.3"/>
	<rect x="1631.8" y="203" class="st5" width="1.7" height="27.3"/>
	<rect x="1670.5" y="1.5" class="st12" width="64.7" height="155.8"/>
	<rect x="1667.5" y="156.3" class="st12" width="67.7" height="3.1"/>
	<rect x="1711.8" y="151" class="st21" width="32.7" height="13.7"/>
	<rect x="1679.8" y="157" class="st12" width="8.7" height="11"/>
	<rect x="1836.2" y="1.5" class="st21" width="21.3" height="189.5"/>
	<rect x="1853.8" y="1.5" class="st21" width="35" height="112.2"/>
	<rect x="1806.2" y="1.5" class="st21" width="32.7" height="205.6"/>
	<rect x="1792.5" y="1.5" class="st21" width="17" height="194.2"/>
	<polygon class="st12" points="1512.9,1.5 1568.9,1.5 1568.5,180.9 1512.5,180.9 	"/>
	<polygon class="st12" points="1556.2,1.5 1592.9,1.5 1592.5,87.4 1568.5,107.4 1555.8,107.4 	"/>
	<rect x="1562.2" y="178.4" class="st12" width="2" height="17.3"/>
	<g>
		<polygon class="st22" points="1162.7,1.5 1225,1.5 1224.7,159.9 1162.3,159.9 		"/>
		<ellipse class="st22" cx="1193.5" cy="159.9" rx="31.2" ry="27.9"/>
	</g>
	<polygon class="st22" points="1194.5,1.5 1298.2,1.5 1297.8,119.5 1194.1,119.5 	"/>
	<polygon class="st22" points="1133.9,1.5 1179.6,1.5 1179.3,150.9 1133.5,150.9 	"/>
	<polygon class="st15" points="433.1,1.5 557.2,1.5 556.8,150.7 432.8,150.7 	"/>
	<polygon class="st15" points="371.7,1.5 413.5,1.5 413.2,127.4 392.8,151.4 371.3,127.4 	"/>
	<polygon class="st15" points="393,1.5 434.9,1.5 434.5,164.4 414.2,195.7 392.7,164.4 	"/>
	<polygon class="st22" points="1190.1,186.7 1196.8,186.7 1193.6,240.4 	"/>
	<polygon class="st23" points="1745.5,1.5 1775.9,1.5 1775.5,185.8 1745.2,185.8 	"/>
	<polygon class="st23" points="1735.4,1.5 1765.7,1.5 1765.3,112.5 1735,96.2 	"/>
	<polygon class="st23" points="1792.4,1.5 1762,1.5 1761.7,142.5 1792,126.2 	"/>
	<polygon class="st12" points="1694.5,1.5 1749.5,1.5 1749.2,76.4 1694.2,76.4 	"/>
	<polygon class="st10" points="939.2,1.5 988.9,1.5 988.5,168 938.8,168 	"/>
	<rect x="982.8" y="164.9" class="st10" width="1.2" height="16.3"/>
	<rect x="977.8" y="164.9" class="st10" width="1.2" height="16.3"/>
	<polygon class="st10" points="944.8,161.9 969.3,161.9 969.3,208.1 957.5,218.1 944.8,208.1 	"/>
	<rect x="896.5" y="110.9" class="st10" width="48.2" height="37"/>
	<g>
		<rect x="1864.7" y="19.9" class="st23" width="2.2" height="23"/>
		<circle class="st23" cx="1865.8" cy="50.3" r="12"/>
	</g>
	<rect x="22" y="1.5" class="st24" width="92.2" height="120.8"/>
	<rect x="114.2" y="1.5" class="st24" width="108.7" height="88.2"/>
	<rect x="30" y="117" class="st24" width="9.5" height="14"/>
	<rect x="48.8" y="122.4" class="st24" width="34.7" height="8.7"/>
	<rect x="78" y="1.5" class="st24" width="51" height="143.3"/>
	<polygon class="st24" points="126.8,1.5 333.5,1.5 333.5,109 318.5,118 136.8,118 126.8,109.9 	"/>
	<rect x="129" y="87.4" class="st24" width="11.5" height="24.3"/>
	<rect x="816.8" y="1.5" class="st22" width="129.7" height="124.2"/>
	<rect x="660.6" y="1.5" class="st25" width="75.7" height="124.2"/>
	<polygon class="st18" points="1257.7,1.5 1530,1.5 1530,125.7 1257.7,105.7 	"/>
	<rect x="935.2" y="1.5" class="st22" width="29.5" height="83.5"/>
	<rect x="592.2" y="1.5" class="st25" width="87.3" height="96.2"/>
	<polygon class="st25" points="614.5,74 638.5,74 638.5,114.9 627,144.9 614.5,114.9 	"/>
	<polygon class="st15" points="450.8,1.5 517.5,1.5 517.5,136.4 483.6,171.4 450.8,136.4 	"/>
	<rect x="323.5" y="1.5" class="st15" width="132.5" height="92.2"/>
	<rect x="517.5" y="1.5" class="st15" width="78.7" height="60.7"/>
	<rect x="659.2" y="1.5" class="st25" width="28.3" height="60.7"/>
	<rect x="960" y="1.5" class="st22" width="156.8" height="136.8"/>
	<rect x="1606.5" y="1.5" class="st12" width="91.2" height="109.1"/>
	<rect x="1179.3" y="1.5" class="st18" width="91.3" height="78"/>
	<rect x="1682.5" y="1.5" class="st12" width="33.8" height="89.1"/>
	<rect x="1111.5" y="1.5" class="st22" width="39" height="129.5"/>
	<rect x="1285.2" y="1.5" class="st18" width="60" height="129.5"/>
	<polygon class="st22" points="1186.2,1.5 1146.2,1.5 1146.2,94.8 1176.5,94.8 1186.2,86.8 	"/>
	<rect x="626.4" y="143.3" class="st25" width="1.2" height="8.8"/>
	<polygon class="st24" points="66.4,1.5 -2.4,1.5 -2.4,1.5 66.4,32.9 	"/>
	<rect x="935.2" y="114.9" class="st22" width="3.7" height="18.2"/>
	
		<rect x="1427.4" y="103.2" transform="matrix(8.252952e-02 -0.9966 0.9966 8.252952e-02 1195.8301 1536.6599)" class="st18" width="10.2" height="31.3"/>
	<g>
		<rect x="746.1" y="1.5" class="st25" width="2.9" height="30.6"/>
		<circle class="st25" cx="747.5" cy="42.1" r="16"/>
	</g>
	<g>
		<rect x="1879.3" y="1.5" class="st23" width="2.9" height="33.3"/>
		<circle class="st23" cx="1880.7" cy="44.8" r="16"/>
	</g>
	<g>
		<rect x="782.7" y="1.5" class="st25" width="1.9" height="23.6"/>
		<circle class="st25" cx="783.6" cy="31.7" r="10.4"/>
	</g>
	<rect x="1806.2" y="1.5" class="st26" width="45" height="53.8"/>
	<rect x="1794.5" y="1.5" class="st26" width="52.3" height="61.2"/>
	<polygon class="st26" points="1850,1.5 1920,1.5 1920,1.5 1850,33.2 	"/>
	<polygon class="st26" points="1744.3,1.5 1831.3,1.5 1831.5,62.7 1821.5,73.4 1754.5,73.4 1744.5,57.4 	"/>
	<rect x="1732.5" y="1.5" class="st26" width="16.7" height="55.8"/>
	<rect x="1638.8" y="1.5" class="st27" width="67" height="42.8"/>
	<rect x="1630.2" y="1.5" class="st27" width="37.3" height="57.5"/>
	<rect x="1476" y="65" class="st27" width="169.5" height="7"/>
	<rect x="1476" y="1.5" class="st27" width="160.2" height="67"/>
	<rect x="1194.5" y="1.5" class="st17" width="285.3" height="54.2"/>
	<rect x="1398.8" y="54" class="st17" width="36" height="18"/>
	<rect x="1428.5" y="70.7" class="st17" width="5" height="13"/>
	<rect x="1327.2" y="50.7" class="st17" width="36" height="21.3"/>
	<rect x="1356.8" y="70.7" class="st17" width="2.7" height="13"/>
	<rect x="1452.2" y="55.7" class="st17" width="2" height="11"/>
	<rect x="1448.2" y="55.7" class="st17" width="2" height="11"/>
	<rect x="1234.2" y="47.4" class="st17" width="95" height="15.7"/>
	<rect x="1142.8" y="1.5" class="st28" width="58" height="38.8"/>
	<rect x="1087.5" y="1.5" class="st28" width="58.7" height="45.8"/>
	<rect x="965.2" y="1.5" class="st28" width="115.3" height="50.2"/>
	<rect x="887.2" y="1.5" class="st28" width="59.3" height="45.8"/>
	<rect x="790.8" y="1.5" class="st28" width="89.3" height="50.2"/>
	<polygon class="st28" points="935.2,1.5 1007.8,1.5 1007.8,68.7 946.5,68.7 935.2,58.7 	"/>
	<rect x="529.5" y="1.5" class="st29" width="183" height="48"/>
	<polygon class="st29" points="712.5,49.5 682.2,66.7 565.2,66.7 528.8,49.5 	"/>
	<rect x="659.2" y="66.9" class="st29" width="17.3" height="5.2"/>
	<rect x="638.5" y="66.9" class="st29" width="12" height="5.2"/>
	<rect x="602.5" y="66.9" class="st29" width="12" height="5.2"/>
	<rect x="624" y="66.9" class="st29" width="6" height="5.2"/>
	<polygon class="st28" points="1036,1.5 1133.5,1.5 1133.5,47.4 1123.5,63 1036,63 	"/>
	<rect x="873.5" y="1.5" class="st28" width="19.5" height="31"/>
	<rect x="331.8" y="1.5" class="st16" width="59.7" height="48.8"/>
	<rect x="241" y="1.5" class="st30" width="82.5" height="48.8"/>
	<rect x="136.5" y="1.5" class="st30" width="14.9" height="17.7"/>
	<polygon class="st30" points="134.5,18.6 153.3,18.6 149.3,25.9 138.5,25.9 	"/>
	<ellipse class="st30" cx="143.9" cy="30" rx="7.1" ry="10"/>
	<polygon class="st30" points="142.5,38.2 145.3,38.2 144.3,56.4 143.5,56.4 	"/>
	<rect x="707.5" y="1.5" class="st29" width="92.5" height="10.3"/>
	<rect x="1697.5" y="1.5" class="st27" width="37.7" height="31"/>
	<g>
		<rect x="497.1" y="1.5" class="st16" width="2.9" height="31.1"/>
		<circle class="st16" cx="498.6" cy="42.6" r="16"/>
	</g>
	<g>
		<rect x="763.5" y="1.5" class="st29" width="2.9" height="31.1"/>
		<circle class="st29" cx="764.9" cy="42.6" r="16"/>
	</g>
	<g>
		<rect x="729.8" y="1.5" class="st29" width="2.3" height="24.7"/>
		<circle class="st29" cx="731" cy="34" r="12.6"/>
	</g>
	<g>
		<rect x="457.6" y="1.5" class="st16" width="2.9" height="31.1"/>
		<circle class="st16" cx="459" cy="42.6" r="16"/>
	</g>
	<g>
		<rect x="418.1" y="1.5" class="st16" width="2.9" height="31.2"/>
		<circle class="st16" cx="419.5" cy="42.7" r="16"/>
	</g>
	<g>
		<rect x="109.5" y="1.5" class="st30" width="2.1" height="23"/>
		<path class="st30" d="M100.6,30.5c0-1.5-1.5-1.5-1-2.8c0.5-1.4,1.3-2.7,2.4-3.8c1.3-1.4-3.1-4.5-1.2-5.1c1.2-0.4,8.5,1.5,9.8,1.4
			c7.8-0.5,7.4-3.8,9.5-1.4c0.9,1-1.7,7.2-1.2,8.5c0.5,1.3,4.5,1.3,4.5,2.8c0,0.8-3.5,2.9-3.7,3.7c-0.4,2.1,0.9,4.5-0.5,6.1
			c-1,1.1-3.3-0.7-4.7,0c-1.5,0.7-2.2,3.9-4,3.9c-1.5,0-2.9-0.3-4.2-0.8c-1.7-0.6-2.3-2.5-3.5-3.7c-1-1-2.6-1.4-3.1-2.7
			C99.1,35,100.6,32.1,100.6,30.5z"/>
	</g>
	<g>
		<rect x="79.8" y="9.3" class="st30" width="1.3" height="14"/>
		<path class="st30" d="M74.3,27c0-0.9-0.9-0.9-0.6-1.8c0.3-0.9,0.8-1.7,1.5-2.4c0.8-0.9-1.9-2.8-0.7-3.2c0.7-0.2,5.3,0.9,6.1,0.8
			c4.8-0.3,4.6-2.4,5.9-0.9c0.6,0.6-1.1,4.5-0.7,5.3c0.3,0.8,2.8,0.8,2.8,1.8c0,0.5-2.2,1.8-2.3,2.3c-0.3,1.3,0.6,2.8-0.3,3.8
			c-0.6,0.7-2-0.4-2.9,0c-0.9,0.5-1.4,2.4-2.5,2.4c-0.9,0-1.8-0.2-2.6-0.5c-1-0.4-1.5-1.5-2.2-2.3c-0.6-0.6-1.6-0.9-2-1.7
			C73.4,29.8,74.3,28,74.3,27z"/>
	</g>
	<g>
		<rect x="215" y="1.5" class="st30" width="2" height="28.1"/>
		<polygon class="st30" points="216.7,44.4 205.7,10.2 226.8,10.2 		"/>
	</g>
	<g>
		<rect x="188.7" y="1.5" class="st30" width="2" height="28.1"/>
		<polygon class="st30" points="190.4,44.4 179.4,10.2 200.5,10.2 		"/>
	</g>
	<polygon class="st26" points="1765.9,65 1807.8,65 1807.8,99.7 1786.6,109.7 1765.9,99.7 	"/>
	<path class="st30" d="M76.3,1.5h46.8c0,0,3.4,2.5,3.7,6c0.3,3.4-1,5.1-3.7,5.5c-2.7,0.3-5.7-3.4-7.6-3.5c-1.8-0.2-5,3.5-7.6,3.5
		c-2.5,0-3.4-3.2-5.2-3.5c-1.8-0.3-5.4,3.9-8.6,3.5c-3.2-0.3-3.4-2.7-5.9-3.5c-2.5-0.8-3.2,3.7-6.9,3.5c-3.7-0.2-2.2-2.3-3.5-3.5
		c-1.3-1.2-3.9,1.3-4.7-0.8C72.4,6.4,76.3,1.5,76.3,1.5z"/>
	<rect x="338" y="47.9" class="st16" width="46.8" height="6.7"/>
	<rect x="341.3" y="51.2" class="st16" width="16.8" height="17.4"/>
	<rect x="313.3" y="49.1" class="st30" width="1" height="13.5"/>
	<rect x="307.2" y="49.1" class="st30" width="1" height="13.5"/>
	<g>
		<path class="st0" d="M208.6,139.9c0,1.6-1.3,2.8-2.8,2.8l0,0c-1.6,0-2.8-1.3-2.8-2.8l0,0c0-1.6,1.3-2.8,2.8-2.8l0,0
			C207.3,137.1,208.6,138.3,208.6,139.9z M208.6,151.2c0,1.6-1.3,2.8-2.8,2.8l0,0c-1.6,0-2.8-1.3-2.8-2.8l0,0c0-1.6,1.3-2.8,2.8-2.8
			l0,0C207.3,148.4,208.6,149.7,208.6,151.2z M208.6,162.6c0,1.6-1.3,2.8-2.8,2.8l0,0c-1.6,0-2.8-1.3-2.8-2.8l0,0
			c0-1.6,1.3-2.8,2.8-2.8l0,0C207.3,159.7,208.6,161,208.6,162.6z M208.6,173.9c0,1.6-1.3,2.8-2.8,2.8l0,0c-1.6,0-2.8-1.3-2.8-2.8
			l0,0c0-1.6,1.3-2.8,2.8-2.8l0,0C207.3,171.1,208.6,172.3,208.6,173.9z M208.6,185.3c0,1.6-1.3,2.8-2.8,2.8l0,0
			c-1.6,0-2.8-1.3-2.8-2.8l0,0c0-1.6,1.3-2.8,2.8-2.8l0,0C207.3,182.4,208.6,183.7,208.6,185.3z M208.6,196.6c0,1.6-1.3,2.8-2.8,2.8
			l0,0c-1.6,0-2.8-1.3-2.8-2.8l0,0c0-1.6,1.3-2.8,2.8-2.8l0,0C207.3,193.8,208.6,195,208.6,196.6z M208.6,207.9
			c0,1.6-1.3,2.8-2.8,2.8l0,0c-1.6,0-2.8-1.3-2.8-2.8l0,0c0-1.6,1.3-2.8,2.8-2.8l0,0C207.3,205.1,208.6,206.4,208.6,207.9z
			 M208.6,219.3c0,1.6-1.3,2.8-2.8,2.8l0,0c-1.6,0-2.8-1.3-2.8-2.8l0,0c0-1.6,1.3-2.8,2.8-2.8l0,0
			C207.3,216.4,208.6,217.7,208.6,219.3z M208.6,230.6c0,1.6-1.3,2.8-2.8,2.8l0,0c-1.6,0-2.8-1.3-2.8-2.8l0,0c0-1.6,1.3-2.8,2.8-2.8
			l0,0C207.3,227.8,208.6,229,208.6,230.6z M208.6,241.9c0,1.6-1.3,2.8-2.8,2.8l0,0c-1.6,0-2.8-1.3-2.8-2.8l0,0
			c0-1.6,1.3-2.8,2.8-2.8l0,0C207.3,239.1,208.6,240.4,208.6,241.9z M208.6,253.3c0,1.6-1.3,2.8-2.8,2.8l0,0c-1.6,0-2.8-1.3-2.8-2.8
			l0,0c0-1.6,1.3-2.8,2.8-2.8l0,0C207.3,250.5,208.6,251.7,208.6,253.3z M208.6,264.6c0,1.6-1.3,2.8-2.8,2.8l0,0
			c-1.6,0-2.8-1.3-2.8-2.8l0,0c0-1.6,1.3-2.8,2.8-2.8l0,0C207.3,261.8,208.6,263.1,208.6,264.6z M208.6,276c0,1.6-1.3,2.8-2.8,2.8
			l0,0c-1.6,0-2.8-1.3-2.8-2.8l0,0c0-1.6,1.3-2.8,2.8-2.8l0,0C207.3,273.1,208.6,274.4,208.6,276z M208.6,287.3
			c0,1.6-1.3,2.8-2.8,2.8l0,0c-1.6,0-2.8-1.3-2.8-2.8l0,0c0-1.6,1.3-2.8,2.8-2.8l0,0C207.3,284.5,208.6,285.7,208.6,287.3z
			 M208.6,298.6c0,1.6-1.3,2.8-2.8,2.8l0,0c-1.6,0-2.8-1.3-2.8-2.8l0,0c0-1.6,1.3-2.8,2.8-2.8l0,0
			C207.3,295.8,208.6,297.1,208.6,298.6z"/>
	</g>
	<g>
		<path class="st0" d="M1291.6,149.7v5.7h-5.7v-5.7C1291.6,149.7,1285.9,149.7,1291.6,149.7z M1291.6,161v5.7h-5.7V161
			C1291.6,161,1285.9,161,1291.6,161z M1291.6,172.3v5.7h-5.7v-5.7C1291.6,172.3,1285.9,172.3,1291.6,172.3z M1291.6,183.7v5.7h-5.7
			v-5.7C1291.6,183.7,1285.9,183.7,1291.6,183.7z M1291.6,195v5.7h-5.7V195C1291.6,195,1285.9,195,1291.6,195z M1291.6,206.4v5.7
			h-5.7v-5.7C1291.6,206.4,1285.9,206.4,1291.6,206.4z M1291.6,217.7v5.7h-5.7v-5.7C1291.6,217.7,1285.9,217.7,1291.6,217.7z
			 M1291.6,229v5.7h-5.7V229C1291.6,229,1285.9,229,1291.6,229z M1291.6,240.4v5.7h-5.7v-5.7
			C1291.6,240.4,1285.9,240.4,1291.6,240.4z"/>
	</g>
	<g>
		<path class="st5" d="M1743.6,204.3v5.7h-5.7v-5.7C1743.6,204.3,1737.9,204.3,1743.6,204.3z M1743.6,215.7v5.7h-5.7v-5.7
			C1743.6,215.7,1737.9,215.7,1743.6,215.7z M1743.6,227v5.7h-5.7V227C1743.6,227,1737.9,227,1743.6,227z M1743.6,238.3v5.7h-5.7
			v-5.7C1743.6,238.3,1737.9,238.3,1743.6,238.3z M1743.6,249.7v5.7h-5.7v-5.7C1743.6,249.7,1737.9,249.7,1743.6,249.7z M1743.6,261
			v5.7h-5.7V261C1743.6,261,1737.9,261,1743.6,261z M1743.6,272.4v5.7h-5.7v-5.7C1743.6,272.4,1737.9,272.4,1743.6,272.4z
			 M1743.6,283.7v5.7h-5.7v-5.7C1743.6,283.7,1737.9,283.7,1743.6,283.7z M1743.6,295v5.7h-5.7V295
			C1743.6,295,1737.9,295,1743.6,295z"/>
	</g>
	<g>
		<path class="st0" d="M1279.1,149.7v5.7h-5.7v-5.7C1279.1,149.7,1273.4,149.7,1279.1,149.7z M1279.1,161v5.7h-5.7V161
			C1279.1,161,1273.4,161,1279.1,161z M1279.1,172.3v5.7h-5.7v-5.7C1279.1,172.3,1273.4,172.3,1279.1,172.3z M1279.1,183.7v5.7h-5.7
			v-5.7C1279.1,183.7,1273.4,183.7,1279.1,183.7z M1279.1,195v5.7h-5.7V195C1279.1,195,1273.4,195,1279.1,195z M1279.1,206.4v5.7
			h-5.7v-5.7C1279.1,206.4,1273.4,206.4,1279.1,206.4z M1279.1,217.7v5.7h-5.7v-5.7C1279.1,217.7,1273.4,217.7,1279.1,217.7z
			 M1279.1,229v5.7h-5.7V229C1279.1,229,1273.4,229,1279.1,229z M1279.1,240.4v5.7h-5.7v-5.7
			C1279.1,240.4,1273.4,240.4,1279.1,240.4z"/>
	</g>
	<g>
		<path class="st10" d="M974.1,124.4v5.7h-5.7v-5.7C974.1,124.4,968.5,124.4,974.1,124.4z M985.5,124.4v5.7h-5.7v-5.7
			C985.5,124.4,979.8,124.4,985.5,124.4z M996.8,124.4v5.7h-5.7v-5.7C996.8,124.4,991.1,124.4,996.8,124.4z M1008.2,124.4v5.7h-5.7
			v-5.7C1008.2,124.4,1002.5,124.4,1008.2,124.4z M1019.5,124.4v5.7h-5.7v-5.7C1019.5,124.4,1013.8,124.4,1019.5,124.4z
			 M1030.8,124.4v5.7h-5.7v-5.7C1030.8,124.4,1025.2,124.4,1030.8,124.4z M1042.2,124.4v5.7h-5.7v-5.7
			C1042.2,124.4,1036.5,124.4,1042.2,124.4z M1053.5,124.4v5.7h-5.7v-5.7C1053.5,124.4,1047.8,124.4,1053.5,124.4z M1064.8,124.4
			v5.7h-5.7v-5.7C1064.8,124.4,1059.2,124.4,1064.8,124.4z"/>
	</g>
	<g>
		<path class="st4" d="M457.6,132v8.5H449V132C457.6,132,449,132,457.6,132z M468.9,132v8.5h-8.5V132C468.9,132,460.4,132,468.9,132
			z M480.2,132v8.5h-8.5V132C480.2,132,471.7,132,480.2,132z M491.6,132v8.5h-8.5V132C491.6,132,483.1,132,491.6,132z M502.9,132
			v8.5h-8.5V132C502.9,132,494.4,132,502.9,132z M514.2,132v8.5h-8.5V132C514.2,132,505.7,132,514.2,132z M525.6,132v8.5h-8.5V132
			C525.6,132,517.1,132,525.6,132z M536.9,132v8.5h-8.5V132C536.9,132,528.4,132,536.9,132z M548.3,132v8.5h-8.5V132
			C548.3,132,539.8,132,548.3,132z"/>
	</g>
	<g>
		<path class="st0" d="M796.1,187.7v5.7h-5.7v-5.7C796.1,187.7,790.4,187.7,796.1,187.7z M796.1,199v5.7h-5.7V199
			C796.1,199,790.4,199,796.1,199z M796.1,210.3v5.7h-5.7v-5.7C796.1,210.3,790.4,210.3,796.1,210.3z M796.1,221.7v5.7h-5.7v-5.7
			C796.1,221.7,790.4,221.7,796.1,221.7z M796.1,233v5.7h-5.7V233C796.1,233,790.4,233,796.1,233z M796.1,244.4v5.7h-5.7v-5.7
			C796.1,244.4,790.4,244.4,796.1,244.4z M796.1,255.7v5.7h-5.7v-5.7C796.1,255.7,790.4,255.7,796.1,255.7z M796.1,267v5.7h-5.7V267
			C796.1,267,790.4,267,796.1,267z M796.1,278.4v5.7h-5.7v-5.7C796.1,278.4,790.4,278.4,796.1,278.4z"/>
	</g>
	<g>
		<path class="st0" d="M863.1,304.1v5.7h-5.7v-5.7C863.1,304.1,857.4,304.1,863.1,304.1z M863.1,315.5v5.7h-5.7v-5.7
			C863.1,315.5,857.4,315.5,863.1,315.5z M863.1,326.8v5.7h-5.7v-5.7C863.1,326.8,857.4,326.8,863.1,326.8z M863.1,338.1v5.7h-5.7
			v-5.7C863.1,338.1,857.4,338.1,863.1,338.1z"/>
	</g>
	<g>
		<path class="st0" d="M856.6,141v5.7h-5.7V141C856.6,141,850.9,141,856.6,141z M856.6,152.4v5.7h-5.7v-5.7
			C856.6,152.4,850.9,152.4,856.6,152.4z M856.6,163.7v5.7h-5.7v-5.7C856.6,163.7,850.9,163.7,856.6,163.7z M856.6,175.1v5.7h-5.7
			v-5.7C856.6,175.1,850.9,175.1,856.6,175.1z M856.6,186.4v5.7h-5.7v-5.7C856.6,186.4,850.9,186.4,856.6,186.4z M856.6,197.7v5.7
			h-5.7v-5.7C856.6,197.7,850.9,197.7,856.6,197.7z M856.6,209.1v5.7h-5.7v-5.7C856.6,209.1,850.9,209.1,856.6,209.1z"/>
	</g>
	<g>
		<path class="st6" d="M587.6,81.5v5.7h-5.7v-5.7C587.6,81.5,581.9,81.5,587.6,81.5z M587.6,92.9v5.7h-5.7v-5.7
			C587.6,92.9,581.9,92.9,587.6,92.9z M587.6,104.2v5.7h-5.7v-5.7C587.6,104.2,581.9,104.2,587.6,104.2z M587.6,115.6v5.7h-5.7v-5.7
			C587.6,115.6,581.9,115.6,587.6,115.6z M587.6,126.9v5.7h-5.7v-5.7C587.6,126.9,581.9,126.9,587.6,126.9z M587.6,138.2v5.7h-5.7
			v-5.7C587.6,138.2,581.9,138.2,587.6,138.2z M587.6,149.6v5.7h-5.7v-5.7C587.6,149.6,581.9,149.6,587.6,149.6z M587.6,160.9v5.7
			h-5.7v-5.7C587.6,160.9,581.9,160.9,587.6,160.9z M587.6,172.3v5.7h-5.7v-5.7C587.6,172.3,581.9,172.3,587.6,172.3z M587.6,183.6
			v5.7h-5.7v-5.7C587.6,183.6,581.9,183.6,587.6,183.6z M587.6,194.9v5.7h-5.7v-5.7C587.6,194.9,581.9,194.9,587.6,194.9z
			 M587.6,206.3v5.7h-5.7v-5.7C587.6,206.3,581.9,206.3,587.6,206.3z M587.6,217.6v5.7h-5.7v-5.7
			C587.6,217.6,581.9,217.6,587.6,217.6z M587.6,229v5.7h-5.7V229C587.6,229,581.9,229,587.6,229z M587.6,240.3v5.7h-5.7v-5.7
			C587.6,240.3,581.9,240.3,587.6,240.3z M587.6,251.6v5.7h-5.7v-5.7C587.6,251.6,581.9,251.6,587.6,251.6z M587.6,263v5.7h-5.7V263
			C587.6,263,581.9,263,587.6,263z"/>
	</g>
	<circle class="st31" cx="672.4" cy="273.6" r="16.2"/>
	<g>
		<polygon class="st0" points="666.3,266.6 672.5,275.6 678.6,266.6 680.9,268.2 672.5,280.7 663.9,268.2 		"/>
	</g>
</g>
</svg>
